<?xml version="1.0" standalone="no"?>
<!DOCTYPE svg PUBLIC "-//W3C//DTD SVG 20010904//EN"
 "http://www.w3.org/TR/2001/REC-SVG-20010904/DTD/svg10.dtd">
<svg version="1.0" xmlns="http://www.w3.org/2000/svg"
 width="3000.000000pt" height="3000.000000pt" viewBox="0 0 3000.000000 3000.000000"
 preserveAspectRatio="xMidYMid meet">
<metadata>
Created by potrace 1.11, written by Peter Selinger 2001-2013
</metadata>
<g transform="translate(0.000000,3000.000000) scale(0.100000,-0.100000)"
fill="#000000" stroke="none">
<path d="M6958 22034 c-2 -1 -61 -5 -133 -8 -71 -4 -146 -8 -165 -10 -19 -3
-66 -8 -105 -11 -127 -12 -150 -14 -200 -20 -27 -4 -61 -8 -75 -10 -14 -2 -45
-7 -70 -10 -62 -8 -235 -37 -300 -50 -39 -8 -173 -35 -195 -39 -49 -11 -244
-57 -280 -66 -238 -64 -686 -209 -770 -250 -11 -5 -54 -23 -95 -39 -168 -65
-657 -295 -705 -331 -5 -4 -37 -22 -70 -40 -92 -51 -107 -59 -150 -86 -22 -13
-56 -33 -75 -44 -47 -27 -51 -30 -225 -144 -241 -159 -454 -317 -645 -480 -25
-21 -56 -47 -70 -59 -294 -241 -766 -745 -1016 -1082 -32 -44 -61 -82 -64 -85
-25 -23 -275 -397 -343 -513 -29 -48 -57 -95 -62 -105 -345 -586 -634 -1320
-781 -1982 -2 -11 -6 -28 -8 -37 -25 -105 -83 -422 -91 -498 -3 -27 -8 -57
-10 -65 -2 -8 -7 -44 -10 -79 -3 -35 -7 -67 -9 -70 -2 -3 -7 -46 -11 -96 -4
-49 -8 -103 -10 -120 -27 -211 -26 -1079 0 -1217 2 -9 6 -52 10 -95 3 -43 8
-89 10 -103 2 -14 7 -50 10 -80 3 -30 8 -66 10 -80 2 -14 11 -74 20 -135 26
-174 79 -433 124 -610 65 -253 81 -309 154 -526 236 -707 578 -1364 1012
-1949 94 -126 218 -285 235 -300 3 -3 29 -34 59 -70 99 -120 204 -234 386
-415 290 -291 446 -427 775 -674 487 -366 1048 -677 1635 -906 293 -114 621
-219 845 -270 8 -2 42 -10 75 -19 33 -8 71 -17 85 -20 14 -3 59 -12 100 -21
78 -17 82 -18 140 -29 19 -3 46 -8 60 -11 13 -3 42 -7 64 -11 22 -3 43 -7 46
-9 3 -1 32 -6 65 -9 33 -4 67 -9 75 -11 8 -2 35 -6 60 -9 127 -14 157 -18 180
-22 14 -2 59 -7 100 -10 41 -3 89 -7 105 -9 158 -19 746 -26 950 -12 180 12
365 30 435 42 14 2 45 7 70 10 50 7 214 32 245 39 11 2 61 11 110 21 430 79
978 257 1460 472 505 225 1112 580 1600 936 191 139 260 190 265 196 3 4 39
31 80 62 41 31 86 66 100 78 14 11 30 24 35 28 8 7 110 88 179 143 10 8 40 33
66 55 26 22 114 97 196 167 82 69 161 137 175 150 14 12 61 55 105 93 142 127
291 264 542 500 296 278 1080 1063 1539 1541 37 39 159 166 271 282 l204 210
96 -106 c53 -59 108 -120 122 -136 42 -48 114 -129 130 -146 8 -9 46 -52 85
-96 38 -43 72 -81 75 -84 3 -3 36 -41 75 -85 38 -44 72 -82 75 -85 6 -6 137
-154 176 -199 16 -18 40 -46 54 -61 31 -34 66 -74 155 -175 39 -44 72 -82 75
-85 11 -11 256 -282 283 -314 57 -65 314 -346 472 -514 273 -291 664 -683 896
-898 153 -141 398 -356 504 -441 22 -18 72 -58 110 -89 39 -32 151 -118 250
-192 543 -405 1083 -708 1655 -929 115 -45 427 -151 465 -158 11 -2 20 -4 20
-5 0 -1 7 -3 15 -5 8 -2 58 -16 110 -30 52 -14 105 -27 118 -30 12 -2 30 -6
40 -9 28 -9 293 -64 342 -71 25 -3 65 -11 89 -16 24 -5 46 -8 48 -5 3 2 18 0
34 -4 16 -5 60 -12 97 -16 37 -3 75 -8 85 -10 10 -2 48 -6 85 -9 37 -3 81 -8
97 -10 198 -25 919 -25 1130 0 17 2 66 6 110 9 44 4 91 8 105 10 14 2 51 7 84
11 32 4 68 8 80 10 37 6 90 14 141 20 28 4 57 8 65 10 8 3 33 7 55 10 22 4 47
8 55 10 8 3 33 7 55 10 22 4 68 13 101 20 34 8 73 16 85 19 13 2 92 20 174 40
802 194 1563 530 2250 993 77 52 156 107 176 121 20 15 68 49 105 77 38 27 78
57 89 66 11 9 69 56 129 104 120 97 149 120 180 150 12 11 55 49 96 84 132
114 503 492 612 622 20 24 46 55 58 69 12 14 39 45 59 70 20 25 39 47 42 50
11 10 206 268 265 350 51 72 152 225 239 360 90 140 240 412 336 610 61 124
189 406 193 425 2 6 7 19 11 30 143 353 259 724 340 1084 15 64 38 170 41 191
3 14 11 59 19 100 20 103 43 251 60 393 3 23 8 53 10 67 2 14 7 61 10 105 4
44 8 92 10 106 27 218 27 1042 0 1211 -2 13 -6 57 -9 98 -6 74 -11 121 -21
190 -3 19 -7 51 -10 70 -13 97 -17 122 -30 205 -25 150 -67 364 -92 460 -8 33
-16 67 -18 75 -2 8 -11 44 -20 80 -9 36 -18 72 -20 80 -33 149 -210 669 -286
837 -10 23 -19 44 -19 48 0 12 -118 267 -194 420 -223 451 -507 892 -820 1280
-45 55 -85 105 -91 111 -5 6 -21 24 -34 40 -136 163 -430 467 -601 620 -30 27
-59 54 -65 60 -5 6 -55 49 -110 96 -506 430 -1082 796 -1660 1055 -38 17 -92
41 -120 53 -208 93 -745 280 -903 315 -9 2 -73 18 -142 35 -121 30 -313 73
-375 84 -16 3 -55 10 -85 16 -30 6 -71 13 -90 16 -19 2 -51 7 -70 10 -19 3
-51 8 -70 10 -19 2 -46 6 -60 9 -14 2 -52 7 -85 10 -33 4 -71 8 -85 11 -14 2
-59 6 -100 10 -41 3 -86 7 -100 10 -153 24 -963 24 -1155 -1 -16 -2 -63 -6
-105 -9 -41 -4 -86 -8 -100 -10 -14 -3 -52 -7 -85 -11 -33 -3 -69 -8 -80 -10
-11 -3 -40 -7 -65 -10 -25 -2 -58 -7 -75 -10 -16 -3 -43 -7 -60 -10 -16 -3
-40 -7 -51 -9 -12 -2 -37 -7 -55 -10 -35 -6 -49 -9 -134 -26 -27 -6 -60 -12
-73 -15 -13 -2 -32 -7 -42 -10 -10 -3 -27 -7 -37 -9 -125 -25 -460 -121 -628
-181 -371 -133 -729 -300 -1075 -502 -239 -139 -537 -344 -790 -542 -82 -64
-255 -206 -270 -221 -3 -3 -34 -30 -70 -60 -35 -30 -72 -62 -81 -70 -8 -8 -63
-57 -120 -109 -113 -103 -598 -586 -719 -717 -154 -165 -384 -421 -460 -510
-14 -16 -84 -97 -155 -179 -146 -168 -275 -319 -320 -375 -17 -21 -51 -62 -77
-91 -25 -30 -99 -117 -163 -194 -64 -77 -134 -160 -155 -185 -21 -25 -120
-144 -220 -265 -101 -121 -202 -242 -225 -270 -24 -27 -129 -153 -236 -280
-106 -126 -205 -243 -221 -260 l-28 -30 -42 47 c-24 25 -90 97 -148 159 -58
62 -118 126 -134 143 -16 17 -77 83 -136 146 -59 63 -121 129 -136 146 -103
110 -236 253 -274 293 -25 26 -100 106 -166 177 -67 71 -141 149 -164 174
-456 486 -1074 1101 -1439 1435 -30 28 -65 59 -77 70 -70 65 -112 102 -224
199 -69 60 -138 121 -155 135 -75 65 -313 258 -445 360 -80 62 -152 118 -160
124 -162 126 -624 444 -745 513 -11 6 -72 43 -136 81 -164 100 -386 221 -584
318 -175 86 -437 204 -467 210 -9 2 -26 8 -37 14 -11 6 -89 36 -173 67 -84 30
-162 59 -173 64 -19 8 -165 54 -175 55 -3 1 -21 6 -41 13 -20 7 -45 14 -55 17
-10 2 -57 15 -104 28 -47 14 -101 28 -120 33 -19 4 -39 9 -45 10 -22 7 -193
45 -240 55 -63 13 -85 17 -160 30 -33 6 -71 12 -85 15 -14 2 -74 11 -135 19
-178 25 -237 32 -330 40 -38 3 -99 8 -135 11 -65 6 -668 13 -672 8z m562
-2628 c61 -6 90 -10 185 -22 325 -42 700 -149 1040 -297 163 -71 435 -209 534
-271 22 -14 43 -26 45 -26 7 0 186 -113 321 -203 177 -118 543 -392 685 -514
14 -11 70 -59 125 -104 55 -46 116 -98 135 -115 19 -17 80 -71 135 -120 55
-49 105 -93 111 -99 206 -185 936 -910 1204 -1194 80 -85 186 -197 236 -250
50 -53 102 -108 115 -122 13 -15 76 -82 139 -149 163 -174 174 -186 280 -301
52 -56 113 -121 135 -145 22 -23 85 -90 140 -149 113 -121 136 -145 283 -301
57 -62 103 -116 102 -120 -2 -8 -184 -200 -575 -602 -88 -91 -236 -244 -330
-340 -365 -376 -1028 -1032 -1240 -1227 -16 -15 -70 -64 -119 -109 -49 -44
-99 -90 -110 -101 -12 -11 -79 -72 -151 -135 -71 -62 -132 -116 -135 -119 -40
-46 -534 -442 -725 -582 -223 -164 -528 -369 -655 -439 -8 -5 -42 -24 -75 -43
-110 -64 -139 -79 -295 -157 -253 -127 -423 -199 -630 -267 -262 -86 -517
-145 -728 -168 -26 -3 -58 -7 -72 -10 -149 -26 -642 -25 -860 1 -178 21 -219
27 -345 50 -44 8 -93 17 -110 20 -36 6 -298 71 -340 84 -129 40 -319 106 -363
126 -29 13 -57 24 -62 24 -12 0 -61 22 -257 116 -1016 486 -1831 1387 -2214
2449 -41 113 -115 348 -123 388 -2 12 -13 58 -24 102 -18 70 -27 110 -47 215
-3 14 -7 41 -10 60 -3 19 -6 44 -9 55 -8 43 -19 120 -18 126 0 3 -3 35 -8 70
-32 231 -35 724 -5 984 2 17 6 55 10 85 3 30 8 62 10 70 2 8 7 38 10 66 3 28
8 61 10 75 4 21 27 135 39 194 3 11 12 49 21 85 8 36 17 72 19 80 41 172 150
482 241 685 106 236 338 641 417 729 10 11 18 23 18 27 0 4 6 14 13 21 7 7 30
38 52 68 143 198 450 523 666 707 267 227 564 424 884 585 105 53 330 153 370
164 6 1 35 12 65 24 208 83 614 189 863 225 20 3 52 7 70 10 80 12 221 26 327
31 63 4 116 8 118 9 5 5 400 -3 462 -9z m15640 0 c262 -27 374 -43 540 -76 30
-6 66 -14 80 -16 14 -3 52 -12 85 -21 33 -8 67 -17 75 -18 112 -26 410 -129
570 -196 312 -132 686 -348 935 -541 293 -227 562 -490 774 -758 42 -53 85
-109 96 -124 11 -16 29 -40 40 -55 11 -14 34 -46 50 -71 17 -25 33 -49 38 -55
60 -79 203 -328 292 -510 194 -397 339 -852 400 -1260 3 -22 7 -51 9 -65 3
-14 7 -52 11 -85 4 -32 8 -66 10 -75 20 -104 27 -658 11 -840 -9 -101 -9 -107
-26 -233 -18 -131 -21 -151 -25 -167 -3 -8 -7 -33 -10 -55 -3 -22 -19 -98 -35
-170 -17 -71 -33 -140 -35 -153 -21 -95 -109 -359 -173 -517 -222 -553 -530
-1020 -955 -1450 -268 -272 -501 -458 -813 -651 -76 -47 -146 -89 -154 -94
-54 -34 -435 -216 -531 -254 -101 -40 -301 -110 -348 -122 -9 -2 -65 -17 -126
-34 -113 -31 -303 -75 -365 -85 -19 -3 -46 -7 -60 -10 -32 -6 -71 -12 -140
-20 -30 -4 -62 -9 -70 -10 -16 -3 -90 -10 -225 -21 -165 -14 -579 -8 -735 11
-63 8 -115 15 -140 19 -14 3 -43 7 -65 11 -22 3 -47 7 -55 10 -8 2 -31 6 -50
9 -19 3 -50 10 -67 15 -18 5 -33 8 -33 6 0 -2 -18 2 -40 10 -22 8 -44 14 -48
14 -21 1 -244 73 -357 116 -190 72 -520 242 -686 352 -23 15 -49 33 -58 38
-56 35 -284 196 -341 242 -230 182 -332 268 -525 443 -294 267 -772 756 -1140
1165 -44 49 -89 99 -100 110 -11 12 -56 62 -100 111 -44 49 -82 91 -85 94 -3
3 -36 41 -74 85 -39 44 -75 85 -80 90 -6 6 -45 48 -86 95 -41 47 -77 87 -80
90 -3 3 -34 39 -70 80 -36 41 -70 80 -76 85 -5 6 -41 46 -80 90 -38 44 -78 89
-89 101 -11 11 -29 32 -40 45 -17 19 -159 179 -200 225 -5 6 -37 42 -70 79
-33 38 -64 73 -70 79 -5 6 -48 54 -95 106 -47 52 -87 97 -90 100 -3 3 -43 47
-89 98 l-83 92 48 58 c26 31 55 64 63 73 9 9 32 36 52 60 21 24 54 64 75 89
63 74 117 138 215 255 50 61 95 112 98 115 3 3 35 41 70 85 35 44 69 85 75 90
6 6 31 35 56 65 25 30 52 64 62 75 82 99 398 480 427 514 20 25 43 52 51 61
13 13 55 64 122 145 18 22 135 160 203 240 23 28 75 88 115 135 40 47 82 96
94 110 12 14 53 61 91 105 38 44 88 100 111 125 23 25 57 63 75 85 19 22 36
42 39 45 3 3 59 64 125 135 305 333 547 571 870 854 194 170 503 390 729 520
277 158 521 257 866 351 62 17 263 58 315 65 28 3 79 10 115 15 108 15 159 20
285 26 66 4 121 7 123 9 5 4 447 -3 502 -9z"/>
</g>
</svg>
