<?xml version="1.0" encoding="iso-8859-1"?>
<!-- Generator: Adobe Illustrator 17.1.0, SVG Export Plug-In . SVG Version: 6.00 Build 0)  -->
<!DOCTYPE svg PUBLIC "-//W3C//DTD SVG 1.1//EN" "http://www.w3.org/Graphics/SVG/1.1/DTD/svg11.dtd">
<svg version="1.1" id="Capa_1" xmlns="http://www.w3.org/2000/svg" xmlns:xlink="http://www.w3.org/1999/xlink" x="0px" y="0px"
	 viewBox="0 0 466 466" style="enable-background:new 0 0 466 466;" xml:space="preserve">
<g>
	<path d="M301.028,163.875c-21.91,0-42.897,6.695-60.528,19.095v-17.785l35.907-35.913c4.895,0.7,9.852,1.067,14.792,1.067
		c27.749,0,53.837-10.806,73.456-30.424c24.119-24.119,34.859-58.582,28.729-92.188c-0.56-3.07-2.962-5.473-6.032-6.033
		C381.191,0.57,374.889,0,368.619,0c-27.75,0-53.837,10.805-73.456,30.424c-23.175,23.175-33.988,55.9-29.362,88.241L240.5,143.969
		v-28.675c0-4.142-3.357-7.5-7.5-7.5c-4.142,0-7.5,3.358-7.5,7.5v46.775c0,0.018,0,20.899,0,20.899
		c-17.632-12.4-38.618-19.095-60.528-19.095c-58.167,0-105.489,47.322-105.489,105.489c0,14.88,3.041,29.272,9.039,42.777
		l42.624,95.953C126.77,443.271,161.722,466,200.189,466c11.243,0,22.265-1.914,32.811-5.694c10.545,3.78,21.567,5.694,32.811,5.694
		c38.468,0,73.42-22.729,89.044-57.906l42.625-95.954c5.997-13.504,9.038-27.896,9.038-42.776
		C406.518,211.197,359.195,163.875,301.028,163.875z M305.771,41.03C322.556,24.245,344.876,15,368.619,15
		c3.604,0,7.221,0.22,10.805,0.655c3.295,27.069-5.989,54.266-25.376,73.653c-16.786,16.786-39.106,26.031-62.849,26.03
		c-0.283,0-0.566-0.01-0.849-0.013l71.404-71.417c2.929-2.929,2.929-7.678-0.001-10.606s-7.679-2.929-10.606,0.001l-71.4,71.412
		C279.537,81.049,288.766,58.034,305.771,41.03z M383.771,306.051l-42.625,95.954C327.926,431.769,298.355,451,265.811,451
		c-10.337,0-20.455-1.913-30.071-5.686c-0.881-0.345-1.81-0.518-2.739-0.518s-1.859,0.173-2.739,0.518
		c-9.617,3.773-19.734,5.686-30.071,5.686c-32.544,0-62.116-19.232-75.336-48.996L82.23,306.051
		c-5.141-11.575-7.748-23.918-7.748-36.688c0-49.896,40.593-90.489,90.489-90.489c23.551,0,45.86,9.015,62.82,25.385
		c2.905,2.805,7.511,2.805,10.417,0c16.958-16.369,39.269-25.384,62.819-25.384c49.896,0,90.489,40.593,90.489,90.489
		C391.518,282.134,388.911,294.477,383.771,306.051z"/>
	<path d="M165.907,382.534c-4.411,0-8,3.589-8,8s3.589,8,8,8s8-3.589,8-8S170.318,382.534,165.907,382.534z"/>
	<path d="M306.086,214.079c-4.411,0-8,3.589-8,8s3.589,8,8,8s8-3.589,8-8S310.497,214.079,306.086,214.079z"/>
	<path d="M335.907,233.534c-4.411,0-8,3.589-8,8s3.589,8,8,8s8-3.589,8-8S340.318,233.534,335.907,233.534z"/>
</g>
<g>
</g>
<g>
</g>
<g>
</g>
<g>
</g>
<g>
</g>
<g>
</g>
<g>
</g>
<g>
</g>
<g>
</g>
<g>
</g>
<g>
</g>
<g>
</g>
<g>
</g>
<g>
</g>
<g>
</g>
</svg>
