<?xml version="1.0" encoding="iso-8859-1"?>
<!-- Generator: Adobe Illustrator 17.1.0, SVG Export Plug-In . SVG Version: 6.00 Build 0)  -->
<!DOCTYPE svg PUBLIC "-//W3C//DTD SVG 1.1//EN" "http://www.w3.org/Graphics/SVG/1.1/DTD/svg11.dtd">
<svg version="1.1" id="Capa_1" xmlns="http://www.w3.org/2000/svg" xmlns:xlink="http://www.w3.org/1999/xlink" x="0px" y="0px"
	 viewBox="0 0 470 470" style="enable-background:new 0 0 470 470;" xml:space="preserve">
<g>
	<path d="M379.234,300.408c1.35-2.285,1.391-5.113,0.108-7.436l-66.727-120.946l20.554-37.84c1.262-2.324,1.207-5.141-0.145-7.414
		c-1.353-2.273-3.802-3.666-6.446-3.666h-40c-4.143,0-7.5,3.358-7.5,7.5s3.357,7.5,7.5,7.5h27.392l-14.192,26.127H173.611V91.181
		h4.224c4.143,0,7.5-3.358,7.5-7.5s-3.357-7.5-7.5-7.5h-40c-15.994,0-29.006,13.012-29.006,29.006c0,4.142,3.357,7.5,7.5,7.5
		s7.5-3.358,7.5-7.5c0-7.723,6.283-14.006,14.006-14.006h20.776v78.621l-67.954,123.17c-2.001,3.627-0.684,8.189,2.943,10.19
		c1.148,0.634,2.391,0.935,3.616,0.935c2.644,0,5.206-1.4,6.573-3.878l62.322-112.96l55.076,99.826
		c5.262,9.539,17.918,17.011,28.813,17.011h122.776C375.43,304.095,377.886,302.693,379.234,300.408z M250,289.095
		c-5.533,0-13.007-4.412-15.68-9.257l-55.505-100.605h112.815l-45.51,83.782c-1.977,3.64-0.629,8.193,3.011,10.17
		c1.138,0.618,2.364,0.911,3.573,0.911c2.661,0,5.238-1.419,6.598-3.922l44.814-82.503l55.956,101.423H250z"/>
	<path d="M300.056,232.076c-8.365,9.423-14.732,20.193-18.925,32.012c-1.385,3.904,0.657,8.191,4.562,9.576
		c0.828,0.294,1.675,0.434,2.507,0.434c3.086,0,5.978-1.92,7.068-4.995c3.544-9.99,8.929-19.097,16.005-27.068
		c2.75-3.098,2.469-7.838-0.629-10.588C307.544,228.697,302.805,228.979,300.056,232.076z"/>
	<path d="M372.778,199.372c-5.268,0-10.582,0.432-15.796,1.285c-4.088,0.668-6.86,4.524-6.191,8.612
		c0.668,4.087,4.521,6.861,8.611,6.191c4.416-0.722,8.917-1.088,13.376-1.088c45.337,0,82.222,36.886,82.222,82.226
		c0,45.337-36.885,82.221-82.222,82.221c-34.751,0-65.9-21.994-77.513-54.73c-1.385-3.904-5.674-5.945-9.575-4.561
		c-3.904,1.385-5.946,5.672-4.562,9.576c13.73,38.708,50.562,64.716,91.649,64.716c53.608,0,97.222-43.613,97.222-97.221
		C470,242.987,426.387,199.372,372.778,199.372z"/>
	<path d="M159.356,231.445c-3.098,2.75-3.379,7.49-0.629,10.588c13.36,15.049,20.719,34.427,20.719,54.565
		c0,45.337-36.885,82.221-82.222,82.221C51.886,378.819,15,341.935,15,296.598c0-45.339,36.886-82.226,82.225-82.226
		c4.457,0,8.957,0.366,13.373,1.088c4.1,0.667,7.944-2.105,8.611-6.192c0.669-4.088-2.104-7.943-6.191-8.612
		c-5.214-0.852-10.527-1.284-15.793-1.284C43.615,199.372,0,242.987,0,296.598c0,53.608,43.615,97.221,97.225,97.221
		c53.608,0,97.222-43.613,97.222-97.221c0-23.812-8.701-46.726-24.502-64.523C167.196,228.977,162.455,228.696,159.356,231.445z"/>
</g>
<g>
</g>
<g>
</g>
<g>
</g>
<g>
</g>
<g>
</g>
<g>
</g>
<g>
</g>
<g>
</g>
<g>
</g>
<g>
</g>
<g>
</g>
<g>
</g>
<g>
</g>
<g>
</g>
<g>
</g>
</svg>
