<?xml version="1.0" encoding="iso-8859-1"?>
<!-- Generator: Adobe Illustrator 17.1.0, SVG Export Plug-In . SVG Version: 6.00 Build 0)  -->
<!DOCTYPE svg PUBLIC "-//W3C//DTD SVG 1.1//EN" "http://www.w3.org/Graphics/SVG/1.1/DTD/svg11.dtd">
<svg version="1.1" id="Capa_1" xmlns="http://www.w3.org/2000/svg" xmlns:xlink="http://www.w3.org/1999/xlink" x="0px" y="0px"
	 viewBox="0 0 470 470" style="enable-background:new 0 0 470 470;" xml:space="preserve">
<g>
	<path d="M359.731,30.038h-78.926c-2.302,0-4.476,1.057-5.898,2.867L240.604,76.57c-1.774,2.258-2.103,5.33-0.848,7.912
		c1.255,2.582,3.874,4.221,6.745,4.221h113.23c4.142,0,7.5-3.358,7.5-7.5V37.538C367.231,33.396,363.874,30.038,359.731,30.038z
		 M352.231,73.703h-90.3l22.52-28.666h67.781V73.703z"/>
	<path d="M125.146,15h62.522c4.142,0,7.5-3.358,7.5-7.5s-3.358-7.5-7.5-7.5h-62.522c-4.142,0-7.5,3.358-7.5,7.5
		S121.004,15,125.146,15z"/>
	<path d="M365.488,0h-88.357c-8.307,0-18.442,4.926-23.574,11.458l-48.899,62.245h-9.49V45h2.5c4.142,0,7.5-3.358,7.5-7.5
		s-3.358-7.5-7.5-7.5h-82.522c-4.142,0-7.5,3.358-7.5,7.5s3.358,7.5,7.5,7.5h2.5v28.703h-13.135c-21.68,0-31.78,18.963-31.78,31.78
		V438.22c0,12.816,10.101,31.78,31.78,31.78h260.977c21.68,0,31.78-18.964,31.78-31.78V31.78C397.269,10.101,378.305,0,365.488,0z
		 M382.269,438.22c0,4.48-3.977,16.78-16.78,16.78H104.512c-12.803,0-16.78-12.3-16.78-16.78V105.483
		c0-4.48,3.977-16.78,16.78-16.78h40.635c4.142,0,7.5-3.358,7.5-7.5s-3.358-7.5-7.5-7.5h-12.5V45h47.522v36.203
		c0,4.142,3.358,7.5,7.5,7.5h20.635c2.302,0,4.476-1.057,5.897-2.867l51.152-65.111c2.27-2.889,8.104-5.725,11.778-5.725h88.357
		c4.48,0,16.78,3.977,16.78,16.78V438.22z"/>
	<path d="M267.761,129.325c-4.142,0-7.5,3.358-7.5,7.5v34.306l-17.761,18.06v-52.365c0-4.142-3.358-7.5-7.5-7.5s-7.5,3.358-7.5,7.5
		v52.365l-17.761-18.06v-34.306c0-4.142-3.358-7.5-7.5-7.5s-7.5,3.358-7.5,7.5v188.554c0,1.967,0.773,3.856,2.153,5.259
		l30.608,31.123v45.116c0,4.142,3.358,7.5,7.5,7.5s7.5-3.358,7.5-7.5v-45.116l30.608-31.123c1.38-1.403,2.153-3.292,2.153-5.259
		V136.825C275.261,132.683,271.903,129.325,267.761,129.325z M227.5,210.583v6.93c0,4.142,3.358,7.5,7.5,7.5s7.5-3.358,7.5-7.5
		v-6.93l17.761-18.06v54.197L242.5,264.78v-17.267c0-4.142-3.358-7.5-7.5-7.5s-7.5,3.358-7.5,7.5v17.267l-17.761-18.06v-54.197
		L227.5,210.583z M209.739,322.31v-54.197l17.761,18.06v54.197L209.739,322.31z M242.5,340.369v-54.197l17.761-18.06v54.197
		L242.5,340.369z"/>
</g>
<g>
</g>
<g>
</g>
<g>
</g>
<g>
</g>
<g>
</g>
<g>
</g>
<g>
</g>
<g>
</g>
<g>
</g>
<g>
</g>
<g>
</g>
<g>
</g>
<g>
</g>
<g>
</g>
<g>
</g>
</svg>
