<?xml version="1.0" encoding="iso-8859-1"?>
<!-- Generator: Adobe Illustrator 17.1.0, SVG Export Plug-In . SVG Version: 6.00 Build 0)  -->
<!DOCTYPE svg PUBLIC "-//W3C//DTD SVG 1.1//EN" "http://www.w3.org/Graphics/SVG/1.1/DTD/svg11.dtd">
<svg version="1.1" id="Capa_1" xmlns="http://www.w3.org/2000/svg" xmlns:xlink="http://www.w3.org/1999/xlink" x="0px" y="0px"
	 viewBox="0 0 470 470" style="enable-background:new 0 0 470 470;" xml:space="preserve">
<path d="M464.091,84.173c-20.996-4.558-43.17,1.182-59.316,15.352c-3.113,2.732-3.422,7.471-0.689,10.584
	c2.731,3.113,7.471,3.422,10.584,0.69c11.129-9.768,25.362-14.336,39.814-12.968c-3.03,18.388-19.039,32.459-38.271,32.459h-19.897
	c-4.735-15.213-14.553-28.153-28.1-36.867c-15.269-9.822-33.462-13.107-51.222-9.25c-3.449,0.749-5.909,3.8-5.909,7.329
	c0,29.659,24.13,53.789,53.789,53.789h18.169v17.832H7.5c-4.143,0-7.5,3.358-7.5,7.5c0,109.741,89.28,199.021,199.021,199.021
	c23.633,0,46.705-4.09,68.655-12.162c21.501,18.274,46.829,29.281,69.61,29.916c0.07,0.002,0.14,0.003,0.209,0.003
	c1.988,0,3.898-0.79,5.308-2.201c1.458-1.46,2.25-3.457,2.189-5.519c-0.768-26.167-15.066-55.666-38.251-78.908
	c-3.921-3.932-8.03-7.626-12.291-11.053c19.749-9.811,36.72-24.363,49.58-42.625c14.377-20.417,22.57-44.125,23.948-68.973h14.902
	c-1.791,44.568-19.497,86.625-50.337,119.131c-2.851,3.005-2.726,7.752,0.279,10.603c1.451,1.376,3.308,2.059,5.161,2.059
	c1.985,0,3.968-0.784,5.442-2.338c35.219-37.124,54.615-85.762,54.615-136.955V145.29h18.17c29.659,0,53.788-24.129,53.788-53.789
	C470,87.973,467.54,84.921,464.091,84.173z M364.873,130.29c-19.231,0-35.239-14.069-38.272-32.455
	c11.747-1.101,23.438,1.73,33.5,8.203c9.198,5.917,16.191,14.337,20.28,24.252H364.873z M19.466,210.955h106.207
	c3.464,0,6.281,2.817,6.281,6.28c0,3.463-2.817,6.281-6.281,6.281c-2.645,0-5.094,1.393-6.446,3.666
	c-1.352,2.273-1.406,5.09-0.145,7.414c22.198,40.861,62.56,66.297,108.681,68.789c6.072,15.022,15.543,29.539,27.677,42.443
	c-18.156,5.848-37.081,8.816-56.418,8.816C111.407,354.644,37.907,293.086,19.466,210.955z M276.847,281.047
	c-2.636,0.994-4.492,3.381-4.807,6.18c-0.314,2.799,0.966,5.539,3.315,7.093c7.34,4.855,14.326,10.591,20.767,17.047
	c17.999,18.044,29.947,39.998,33.082,60.249c-20.146-3.121-41.997-15.075-59.979-33.102c-13.438-13.473-23.516-29.015-29.145-44.945
	c-1.043-2.953-3.812-4.947-6.943-5c-39.695-0.675-75.034-20.411-96.217-53.273c6.021-3.763,10.033-10.451,10.033-18.06
	c0-11.734-9.547-21.28-21.281-21.28H16.741c-0.811-5.862-1.348-11.81-1.591-17.833h337.798
	C349.99,223.941,320.17,264.71,276.847,281.047z"/>
<g>
</g>
<g>
</g>
<g>
</g>
<g>
</g>
<g>
</g>
<g>
</g>
<g>
</g>
<g>
</g>
<g>
</g>
<g>
</g>
<g>
</g>
<g>
</g>
<g>
</g>
<g>
</g>
<g>
</g>
</svg>
