<?xml version="1.0" encoding="iso-8859-1"?>
<!-- Generator: Adobe Illustrator 17.1.0, SVG Export Plug-In . SVG Version: 6.00 Build 0)  -->
<!DOCTYPE svg PUBLIC "-//W3C//DTD SVG 1.1//EN" "http://www.w3.org/Graphics/SVG/1.1/DTD/svg11.dtd">
<svg version="1.1" id="Capa_1" xmlns="http://www.w3.org/2000/svg" xmlns:xlink="http://www.w3.org/1999/xlink" x="0px" y="0px"
	 viewBox="0 0 470 470" style="enable-background:new 0 0 470 470;" xml:space="preserve">
<g>
	<path d="M108.231,148.631c4.142,0,7.5-3.358,7.5-7.5v-96.5h153.936v96.5c0,4.142,3.358,7.5,7.5,7.5s7.5-3.358,7.5-7.5v-104
		c0-4.142-3.358-7.5-7.5-7.5H108.231c-4.142,0-7.5,3.358-7.5,7.5v104C100.731,145.273,104.089,148.631,108.231,148.631z"/>
	<path d="M411.769,64.288h-5.982V37.5c0-4.142-3.358-7.5-7.5-7.5s-7.5,3.358-7.5,7.5v26.788h-16.68V37.5c0-4.142-3.358-7.5-7.5-7.5
		s-7.5,3.358-7.5,7.5v26.788h-5.982c-4.142,0-7.5,3.358-7.5,7.5v20.223c0,17.734,12.603,32.578,29.322,36.052v205.358
		c0,5.998-4.879,10.876-10.877,10.876s-10.877-4.879-10.877-10.876v-178.87c0-21.845-15.913-40.031-36.753-43.605V37.5
		c0-20.677-16.822-37.5-37.5-37.5H108.231c-20.678,0-37.5,16.823-37.5,37.5V455h-12.5c-4.142,0-7.5,3.358-7.5,7.5s3.358,7.5,7.5,7.5
		H328.94c4.142,0,7.5-3.358,7.5-7.5s-3.358-7.5-7.5-7.5h-12.5V126.277c12.508,3.321,21.753,14.737,21.753,28.275v178.87
		c0,14.269,11.608,25.876,25.877,25.876s25.877-11.608,25.877-25.876V128.063c16.719-3.474,29.322-18.318,29.322-36.052V71.788
		C419.269,67.646,415.911,64.288,411.769,64.288z M108.231,15H278.94c12.407,0,22.5,10.094,22.5,22.5v126.131H85.731V37.5
		C85.731,25.094,95.824,15,108.231,15z M85.731,455V178.631H301.44V455H85.731z M404.269,92.011
		c0,12.032-9.789,21.822-21.822,21.822s-21.822-9.789-21.822-21.822V79.288h43.644V92.011z"/>
	<path d="M235.482,249.315h-83.793c-4.142,0-7.5,3.358-7.5,7.5v150c0,4.142,3.358,7.5,7.5,7.5h83.793c4.142,0,7.5-3.358,7.5-7.5
		v-150C242.982,252.673,239.624,249.315,235.482,249.315z M227.982,399.315h-68.793v-135h68.793V399.315z"/>
	<path d="M181.688,234.315h23.793c4.142,0,7.5-3.358,7.5-7.5s-3.358-7.5-7.5-7.5h-23.793c-4.142,0-7.5,3.358-7.5,7.5
		S177.546,234.315,181.688,234.315z"/>
	<path d="M181.688,384.315h23.793c4.142,0,7.5-3.358,7.5-7.5s-3.358-7.5-7.5-7.5h-23.793c-4.142,0-7.5,3.358-7.5,7.5
		S177.546,384.315,181.688,384.315z"/>
	<path d="M181.688,354.315h23.793c4.142,0,7.5-3.358,7.5-7.5s-3.358-7.5-7.5-7.5h-23.793c-4.142,0-7.5,3.358-7.5,7.5
		S177.546,354.315,181.688,354.315z"/>
	<path d="M181.688,324.315h23.793c4.142,0,7.5-3.358,7.5-7.5s-3.358-7.5-7.5-7.5h-23.793c-4.142,0-7.5,3.358-7.5,7.5
		S177.546,324.315,181.688,324.315z"/>
	<path d="M181.688,294.315h23.793c4.142,0,7.5-3.358,7.5-7.5s-3.358-7.5-7.5-7.5h-23.793c-4.142,0-7.5,3.358-7.5,7.5
		S177.546,294.315,181.688,294.315z"/>
</g>
<g>
</g>
<g>
</g>
<g>
</g>
<g>
</g>
<g>
</g>
<g>
</g>
<g>
</g>
<g>
</g>
<g>
</g>
<g>
</g>
<g>
</g>
<g>
</g>
<g>
</g>
<g>
</g>
<g>
</g>
</svg>
