<?xml version="1.0" encoding="iso-8859-1"?>
<!-- Generator: Adobe Illustrator 17.1.0, SVG Export Plug-In . SVG Version: 6.00 Build 0)  -->
<!DOCTYPE svg PUBLIC "-//W3C//DTD SVG 1.1//EN" "http://www.w3.org/Graphics/SVG/1.1/DTD/svg11.dtd">
<svg version="1.1" id="Capa_1" xmlns="http://www.w3.org/2000/svg" xmlns:xlink="http://www.w3.org/1999/xlink" x="0px" y="0px"
	 viewBox="0 0 470.003 470.003" style="enable-background:new 0 0 470.003 470.003;" xml:space="preserve">
<g>
	<path d="M323.743,285.594c-3.587,2.071-4.816,6.658-2.745,10.245c1.389,2.406,3.91,3.751,6.502,3.751
		c1.272,0,2.563-0.324,3.743-1.006l48.759-28.151l48.759,28.151c1.182,0.682,2.471,1.006,3.743,1.006
		c2.592,0,5.113-1.345,6.502-3.751c2.071-3.587,0.842-8.174-2.745-10.245l-48.759-28.151v-56.302c0-4.142-3.357-7.5-7.5-7.5
		s-7.5,3.358-7.5,7.5v56.302L323.743,285.594z"/>
	<path d="M37.5,299.59c1.272,0,2.563-0.324,3.743-1.006l48.759-28.151l48.759,28.151c1.182,0.682,2.471,1.006,3.743,1.006
		c2.592,0,5.113-1.345,6.502-3.751c2.071-3.587,0.842-8.174-2.745-10.245l-48.759-28.151v-56.302c0-4.142-3.357-7.5-7.5-7.5
		s-7.5,3.358-7.5,7.5v56.302l-48.759,28.151c-3.587,2.071-4.816,6.658-2.745,10.245C32.387,298.245,34.908,299.59,37.5,299.59z"/>
	<path d="M139.425,180.558c1.272,0,2.563-0.324,3.743-1.006l77.228-44.587c3.934,3.367,9.035,5.407,14.606,5.407
		s10.673-2.04,14.606-5.407l77.228,44.587c1.182,0.682,2.471,1.006,3.743,1.006c2.592,0,5.113-1.345,6.502-3.751
		c2.071-3.587,0.842-8.174-2.745-10.245l-77.217-44.581c0.247-1.333,0.383-2.705,0.383-4.109c0-9.777-6.271-18.114-15-21.21V7.501
		c0-4.142-3.357-7.5-7.5-7.5s-7.5,3.358-7.5,7.5v89.161c-8.729,3.096-15,11.433-15,21.21c0,1.404,0.136,2.776,0.383,4.109
		l-77.217,44.581c-3.587,2.071-4.816,6.658-2.745,10.245C134.311,179.213,136.833,180.558,139.425,180.558z M235.002,110.372
		c4.136,0,7.5,3.365,7.5,7.5s-3.364,7.5-7.5,7.5s-7.5-3.365-7.5-7.5S230.866,110.372,235.002,110.372z"/>
	<path d="M465.768,455.75c-25.453-12.317-51.575-22.485-78.267-30.504V291.773c0-4.142-3.357-7.5-7.5-7.5s-7.5,3.358-7.5,7.5
		v129.212c-42.097-11.285-85.549-17.283-130-17.888V162.872c0-4.142-3.357-7.5-7.5-7.5s-7.5,3.358-7.5,7.5v240.226
		c-44.451,0.605-87.903,6.603-130,17.888V291.773c0-4.142-3.357-7.5-7.5-7.5s-7.5,3.358-7.5,7.5v133.473
		c-26.691,8.018-52.813,18.187-78.267,30.504c-3.729,1.804-5.289,6.29-3.484,10.018s6.289,5.289,10.018,3.484
		c26.105-12.632,52.934-22.945,80.376-30.922c0.653-0.1,1.279-0.279,1.865-0.536c45.796-13.123,93.292-19.748,141.992-19.748
		c48.7,0,96.196,6.625,141.991,19.747c0.587,0.258,1.214,0.436,1.868,0.537c27.442,7.977,54.27,18.29,80.375,30.922
		c1.053,0.51,2.165,0.751,3.261,0.751c2.786,0,5.462-1.559,6.757-4.235C471.057,462.039,469.497,457.554,465.768,455.75z"/>
</g>
<g>
</g>
<g>
</g>
<g>
</g>
<g>
</g>
<g>
</g>
<g>
</g>
<g>
</g>
<g>
</g>
<g>
</g>
<g>
</g>
<g>
</g>
<g>
</g>
<g>
</g>
<g>
</g>
<g>
</g>
</svg>
