<?xml version="1.0" encoding="iso-8859-1"?>
<!-- Generator: Adobe Illustrator 17.1.0, SVG Export Plug-In . SVG Version: 6.00 Build 0)  -->
<!DOCTYPE svg PUBLIC "-//W3C//DTD SVG 1.1//EN" "http://www.w3.org/Graphics/SVG/1.1/DTD/svg11.dtd">
<svg version="1.1" id="Capa_1" xmlns="http://www.w3.org/2000/svg" xmlns:xlink="http://www.w3.org/1999/xlink" x="0px" y="0px"
	 viewBox="0 0 470 470" style="enable-background:new 0 0 470 470;" xml:space="preserve">
<g>
	<path d="M466.432,222.149c-2.22-1.366-4.987-1.482-7.311-0.309L339.05,282.434v-53.898c0-2.606-1.353-5.025-3.572-6.39
		c-2.221-1.365-4.989-1.478-7.314-0.302l-120.46,60.971v-54.279c0-2.609-1.356-5.031-3.581-6.395
		c-2.224-1.363-4.998-1.473-7.323-0.289L77.15,282.781v-39.266l32.036-32.036c7.955,1.241,16.039,1.873,24.088,1.874
		c41.476,0,80.469-16.15,109.792-45.473c36.05-36.05,52.103-87.562,42.941-137.794c-0.56-3.07-2.962-5.473-6.032-6.033
		c-9.209-1.68-18.631-2.531-28.003-2.531c-41.477,0-80.468,16.149-109.792,45.473c-35.113,35.113-51.244,84.893-43.595,133.874
		L77.15,222.302V59.025c0-4.142-3.358-7.5-7.5-7.5H7.5c-4.142,0-7.5,3.358-7.5,7.5v381.953c0,4.142,3.358,7.5,7.5,7.5h455
		c4.143,0,7.5-3.358,7.5-7.5V228.536C470,225.932,468.649,223.514,466.432,222.149z M152.786,77.601
		c26.491-26.49,61.716-41.079,99.186-41.079c6.721,0,13.468,0.484,20.125,1.442c6.3,43.723-8.311,87.982-39.638,119.31
		c-26.491,26.491-61.715,41.08-99.185,41.08c-3.518,0-7.042-0.141-10.557-0.404l133.618-133.62c2.929-2.929,2.929-7.678,0-10.607
		c-2.93-2.929-7.678-2.929-10.607,0L112.115,187.337C109.083,146.798,123.744,106.643,152.786,77.601z M62.15,66.525v15H15v-15
		H62.15z M455,433.479H77.15V325.017c0-4.142-3.358-7.5-7.5-7.5s-7.5,3.358-7.5,7.5v108.461H15V96.525h47.15v198.492
		c0,2.609,1.356,5.031,3.581,6.395c2.224,1.363,4.998,1.473,7.323,0.289l119.649-60.929v54.245c0,2.606,1.353,5.025,3.573,6.39
		c2.219,1.364,4.988,1.479,7.314,0.302l120.46-60.971v53.881c0,2.604,1.351,5.022,3.568,6.387c2.22,1.365,4.984,1.482,7.311,0.309
		L455,240.722V433.479z"/>
	<path d="M148.22,365.213c-4.142,0-7.5,3.358-7.5,7.5v38.266c0,4.142,3.358,7.5,7.5,7.5s7.5-3.358,7.5-7.5v-30.766h63.57v30.766
		c0,4.142,3.358,7.5,7.5,7.5s7.5-3.358,7.5-7.5v-30.766h63.57v30.766c0,4.142,3.357,7.5,7.5,7.5s7.5-3.358,7.5-7.5v-30.766h63.569
		v30.766c0,4.142,3.357,7.5,7.5,7.5s7.5-3.358,7.5-7.5v-38.266c0-4.142-3.357-7.5-7.5-7.5H148.22z"/>
</g>
<g>
</g>
<g>
</g>
<g>
</g>
<g>
</g>
<g>
</g>
<g>
</g>
<g>
</g>
<g>
</g>
<g>
</g>
<g>
</g>
<g>
</g>
<g>
</g>
<g>
</g>
<g>
</g>
<g>
</g>
</svg>
