<?xml version="1.0" encoding="iso-8859-1"?>
<!-- Generator: Adobe Illustrator 17.1.0, SVG Export Plug-In . SVG Version: 6.00 Build 0)  -->
<!DOCTYPE svg PUBLIC "-//W3C//DTD SVG 1.1//EN" "http://www.w3.org/Graphics/SVG/1.1/DTD/svg11.dtd">
<svg version="1.1" id="Capa_1" xmlns="http://www.w3.org/2000/svg" xmlns:xlink="http://www.w3.org/1999/xlink" x="0px" y="0px"
	 viewBox="0 0 470 470" style="enable-background:new 0 0 470 470;" xml:space="preserve">
<g>
	<path d="M462.5,222.918H335.873V75.554l14.041,8.261c1.195,0.703,2.504,1.037,3.797,1.037c2.57,0,5.073-1.322,6.471-3.698
		c2.101-3.57,0.909-8.167-2.66-10.267L238.804,1.036c-2.349-1.381-5.26-1.381-7.607,0L112.48,70.887
		c-3.57,2.1-4.761,6.697-2.661,10.267c2.101,3.57,6.696,4.763,10.268,2.661l14.041-8.261v147.364H7.5c-4.142,0-7.5,3.358-7.5,7.5
		s3.358,7.5,7.5,7.5h455c4.143,0,7.5-3.358,7.5-7.5S466.643,222.918,462.5,222.918z M149.127,66.728L235,16.202l85.873,50.526
		v156.19h-31.094v-87.058c0-4.142-3.357-7.5-7.5-7.5h-94.559c-4.142,0-7.5,3.358-7.5,7.5v87.058h-31.094V66.728z M274.779,222.918
		h-79.559v-79.558h79.559V222.918z"/>
	<path d="M289.779,334.864v-74.446c0-4.142-3.357-7.5-7.5-7.5s-7.5,3.358-7.5,7.5v74.446l-15.205,14.576
		c-2.99,2.866-3.09,7.614-0.224,10.604c2.866,2.991,7.613,3.091,10.604,0.224l4.824-4.625v59.578
		C274.779,437.155,256.935,455,235,455s-39.779-17.845-39.779-39.779v-57.167l15.205-14.575c2.99-2.866,3.091-7.614,0.224-10.604
		c-2.866-2.99-7.614-3.091-10.604-0.224l-4.825,4.625v-76.857c0-4.142-3.358-7.5-7.5-7.5s-7.5,3.358-7.5,7.5v76.857l-4.824-4.625
		c-2.99-2.866-7.739-2.767-10.604,0.224c-2.867,2.99-2.766,7.738,0.224,10.604l15.204,14.575v57.167
		C180.221,445.426,204.794,470,235,470c30.205,0,54.779-24.574,54.779-54.779v-59.578l4.824,4.625
		c1.454,1.394,3.323,2.086,5.189,2.086c1.973,0,3.942-0.773,5.415-2.31c2.866-2.99,2.767-7.738-0.224-10.604L289.779,334.864z"/>
</g>
<g>
</g>
<g>
</g>
<g>
</g>
<g>
</g>
<g>
</g>
<g>
</g>
<g>
</g>
<g>
</g>
<g>
</g>
<g>
</g>
<g>
</g>
<g>
</g>
<g>
</g>
<g>
</g>
<g>
</g>
</svg>
