<?xml version="1.0" encoding="iso-8859-1"?>
<!-- Generator: Adobe Illustrator 17.1.0, SVG Export Plug-In . SVG Version: 6.00 Build 0)  -->
<!DOCTYPE svg PUBLIC "-//W3C//DTD SVG 1.1//EN" "http://www.w3.org/Graphics/SVG/1.1/DTD/svg11.dtd">
<svg version="1.1" id="Capa_1" xmlns="http://www.w3.org/2000/svg" xmlns:xlink="http://www.w3.org/1999/xlink" x="0px" y="0px"
	 viewBox="0 0 470 470" style="enable-background:new 0 0 470 470;" xml:space="preserve">
<g>
	<path d="M348.584,169.188H121.417C54.468,169.188,0,223.656,0,290.605V462.5c0,4.142,3.357,7.5,7.5,7.5h227.833H462.5
		c4.143,0,7.5-3.358,7.5-7.5V290.605C470,223.656,415.533,169.188,348.584,169.188z M121.417,184.188
		c56.156,0,102.286,43.725,106.148,98.917H15.268C19.13,227.913,65.26,184.188,121.417,184.188z M151.889,298.105V455H90.944
		V298.105H151.889z M166.889,298.105h60.944V455h-60.944V298.105z M15,298.105h60.944V455H15V298.105z M242.833,455V290.605
		c0-45.791-25.484-85.738-63.01-106.417h168.761c56.156,0,102.286,43.725,106.148,98.917H263.057c-4.143,0-7.5,3.358-7.5,7.5
		s3.357,7.5,7.5,7.5H455V455H242.833z"/>
	<path d="M165.405,84.594h15.492c1.306,9.464,5.037,18.162,10.555,25.44l-10.968,10.968c-2.929,2.929-2.929,7.678,0,10.606
		c1.465,1.464,3.385,2.197,5.304,2.197s3.839-0.732,5.304-2.197l10.967-10.967c7.278,5.519,15.976,9.25,25.44,10.555v15.492
		c0,4.142,3.357,7.5,7.5,7.5s7.5-3.358,7.5-7.5v-15.492c9.464-1.306,18.162-5.037,25.44-10.555l10.967,10.967
		c1.465,1.464,3.385,2.197,5.304,2.197s3.839-0.732,5.304-2.197c2.929-2.929,2.929-7.678,0-10.606l-10.968-10.968
		c5.519-7.278,9.25-15.976,10.555-25.44h15.492c4.143,0,7.5-3.358,7.5-7.5s-3.357-7.5-7.5-7.5h-15.492
		c-1.306-9.464-5.037-18.162-10.555-25.439l10.968-10.968c2.929-2.929,2.929-7.678,0-10.606c-2.93-2.929-7.678-2.929-10.607,0
		L267.94,33.548c-7.278-5.519-15.976-9.25-25.44-10.556V7.5c0-4.142-3.357-7.5-7.5-7.5s-7.5,3.358-7.5,7.5v15.492
		c-9.464,1.306-18.162,5.037-25.44,10.556l-10.967-10.967c-2.93-2.929-7.678-2.929-10.607,0c-2.929,2.929-2.929,7.678,0,10.606
		l10.968,10.968c-5.519,7.278-9.25,15.976-10.555,25.439h-15.492c-4.143,0-7.5,3.358-7.5,7.5S161.263,84.594,165.405,84.594z
		 M235,37.464c21.852,0,39.63,17.778,39.63,39.63s-17.778,39.63-39.63,39.63s-39.63-17.778-39.63-39.63S213.148,37.464,235,37.464z"
		/>
</g>
<g>
</g>
<g>
</g>
<g>
</g>
<g>
</g>
<g>
</g>
<g>
</g>
<g>
</g>
<g>
</g>
<g>
</g>
<g>
</g>
<g>
</g>
<g>
</g>
<g>
</g>
<g>
</g>
<g>
</g>
</svg>
