<?xml version="1.0" encoding="iso-8859-1"?>
<!-- Generator: Adobe Illustrator 17.1.0, SVG Export Plug-In . SVG Version: 6.00 Build 0)  -->
<!DOCTYPE svg PUBLIC "-//W3C//DTD SVG 1.1//EN" "http://www.w3.org/Graphics/SVG/1.1/DTD/svg11.dtd">
<svg version="1.1" id="Capa_1" xmlns="http://www.w3.org/2000/svg" xmlns:xlink="http://www.w3.org/1999/xlink" x="0px" y="0px"
	 viewBox="0 0 469.721 469.721" style="enable-background:new 0 0 469.721 469.721;" xml:space="preserve">
<g>
	<path d="M242.361,188.798v-29.252c24.425-18.407,38.897-47.241,38.897-77.934c0-32.027-15.75-62.039-42.132-80.281
		c-2.566-1.774-5.965-1.774-8.531,0c-26.382,18.242-42.132,48.254-42.132,80.281c0,30.693,14.472,59.527,38.897,77.934v29.252
		c-74.033,3.911-133.063,65.371-133.063,140.362c0,77.506,63.056,140.562,140.563,140.562s140.563-63.056,140.563-140.562
		C375.423,254.169,316.394,192.709,242.361,188.798z M203.463,81.612c0-25.329,11.646-49.172,31.397-64.788
		c19.752,15.616,31.397,39.458,31.397,64.788c0,21.93-8.735,42.742-23.897,58.069V52.975c0-4.142-3.357-7.5-7.5-7.5
		s-7.5,3.358-7.5,7.5v86.706C212.198,124.354,203.463,103.542,203.463,81.612z M234.861,454.721
		c-69.235,0-125.563-56.327-125.563-125.562c0-69.235,56.327-125.563,125.563-125.563s125.563,56.327,125.563,125.563
		C360.423,398.394,304.096,454.721,234.861,454.721z"/>
	<path d="M337.923,321.659H308.78c-0.465-17.072-2.503-33.665-5.985-49.04c4.051-2.243,8.016-4.674,11.862-7.331
		c3.407-2.354,4.262-7.026,1.907-10.434c-2.355-3.408-7.023-4.263-10.435-1.907c-2.393,1.653-4.839,3.206-7.323,4.68
		c-2.44-7.981-5.287-15.535-8.547-22.506c-1.753-3.752-6.219-5.374-9.971-3.618c-3.752,1.754-5.372,6.218-3.617,9.97
		c3.319,7.098,6.181,14.868,8.578,23.133c-13.511,5.932-27.989,9.402-42.89,10.28v-48.789c0-4.142-3.357-7.5-7.5-7.5
		s-7.5,3.358-7.5,7.5v48.789c-14.897-0.877-29.37-4.346-42.878-10.274c2.198-7.587,4.781-14.761,7.754-21.367
		c1.7-3.777,0.017-8.217-3.761-9.917c-3.775-1.699-8.217-0.016-9.917,3.761c-2.885,6.411-5.442,13.289-7.654,20.533
		c-2.48-1.473-4.924-3.024-7.314-4.675c-3.41-2.355-8.079-1.5-10.435,1.907c-2.354,3.408-1.5,8.079,1.907,10.434
		c3.852,2.662,7.824,5.096,11.882,7.343c-3.484,15.391-5.536,31.988-6.003,49.03h-29.145c-4.143,0-7.5,3.358-7.5,7.5
		s3.357,7.5,7.5,7.5h29.143c0.465,17.072,2.503,33.665,5.985,49.04c-4.049,2.243-8.013,4.673-11.858,7.33
		c-3.408,2.354-4.263,7.026-1.908,10.434c1.456,2.107,3.797,3.237,6.178,3.237c1.47,0,2.955-0.431,4.256-1.33
		c2.392-1.653,4.838-3.205,7.32-4.679c2.441,7.981,5.288,15.535,8.547,22.506c1.273,2.725,3.977,4.326,6.799,4.326
		c1.063,0,2.145-0.228,3.172-0.708c3.752-1.754,5.372-6.218,3.617-9.97c-3.319-7.098-6.181-14.868-8.578-23.133
		c13.511-5.932,27.989-9.402,42.89-10.279v48.789c0,4.142,3.357,7.5,7.5,7.5s7.5-3.358,7.5-7.5v-48.789
		c14.901,0.877,29.378,4.347,42.89,10.279c-2.398,8.267-5.261,16.039-8.581,23.138c-1.755,3.752-0.135,8.216,3.617,9.971
		c1.027,0.48,2.108,0.708,3.172,0.708c2.821,0,5.524-1.6,6.799-4.325c3.26-6.973,6.109-14.529,8.55-22.513
		c2.481,1.473,4.925,3.024,7.315,4.675c3.408,2.355,8.08,1.5,10.434-1.908c2.354-3.408,1.5-8.079-1.908-10.434
		c-3.843-2.655-7.805-5.083-11.853-7.325c3.482-15.375,5.52-31.968,5.985-49.04h29.143c4.143,0,7.5-3.358,7.5-7.5
		S342.066,321.659,337.923,321.659z M288.903,279.339c2.788,13.326,4.448,27.604,4.87,42.32h-51.412v-31.752
		C258.491,289.06,274.182,285.481,288.903,279.339z M180.824,279.342c14.719,6.14,30.408,9.718,46.536,10.566v31.752h-51.41
		C176.373,306.97,178.034,292.682,180.824,279.342z M180.818,378.98c-2.788-13.326-4.448-27.604-4.87-42.32h51.412v31.752
		C211.23,369.259,195.539,372.838,180.818,378.98z M288.903,378.98c-14.721-6.142-30.412-9.721-46.542-10.568v-31.752h51.412
		C293.351,351.376,291.691,365.654,288.903,378.98z"/>
</g>
<g>
</g>
<g>
</g>
<g>
</g>
<g>
</g>
<g>
</g>
<g>
</g>
<g>
</g>
<g>
</g>
<g>
</g>
<g>
</g>
<g>
</g>
<g>
</g>
<g>
</g>
<g>
</g>
<g>
</g>
</svg>
