<?xml version="1.0" encoding="iso-8859-1"?>
<!-- Generator: Adobe Illustrator 17.1.0, SVG Export Plug-In . SVG Version: 6.00 Build 0)  -->
<!DOCTYPE svg PUBLIC "-//W3C//DTD SVG 1.1//EN" "http://www.w3.org/Graphics/SVG/1.1/DTD/svg11.dtd">
<svg version="1.1" id="Capa_1" xmlns="http://www.w3.org/2000/svg" xmlns:xlink="http://www.w3.org/1999/xlink" x="0px" y="0px"
	 viewBox="0 0 470 470" style="enable-background:new 0 0 470 470;" xml:space="preserve">
<g>
	<path d="M323.791,88.5c-32.35,0-62.01,14.852-81.291,39.396V7.5c0-4.142-3.357-7.5-7.5-7.5c-4.142,0-7.5,3.358-7.5,7.5v120.396
		C208.219,103.352,178.559,88.5,146.209,88.5C89.156,88.5,42.74,134.916,42.74,191.969c0,48.889,31.695,110.359,94.204,182.701
		c46.034,53.275,92.729,93.146,93.195,93.543c1.4,1.191,3.129,1.787,4.858,1.787c1.729,0,3.458-0.596,4.858-1.787
		c0.467-0.396,47.162-40.267,93.197-93.542c62.511-72.342,94.206-133.812,94.206-182.703C427.26,134.916,380.844,88.5,323.791,88.5z
		 M234.998,452.535C206.034,426.851,57.74,290.5,57.74,191.969c0-48.782,39.687-88.469,88.469-88.469
		c34.375,0,65.188,19.621,79.84,50.38L106.647,273.281c-2.929,2.929-2.929,7.678,0,10.606c2.929,2.929,7.678,2.929,10.606,0
		L227.5,173.642v125.397l-57.331,57.331c-2.929,2.929-2.929,7.678,0,10.606c2.929,2.929,7.678,2.929,10.606,0l46.724-46.724v101.886
		c0,4.142,3.358,7.5,7.5,7.5c4.143,0,7.5-3.358,7.5-7.5V320.302l46.702,46.702c1.465,1.464,3.385,2.197,5.304,2.197
		s3.839-0.732,5.304-2.197c2.929-2.929,2.929-7.678,0-10.606l-57.31-57.309V173.642l110.246,110.247
		c1.465,1.464,3.385,2.197,5.304,2.197s3.839-0.732,5.304-2.197c2.929-2.929,2.929-7.678,0-10.606L243.951,153.879
		c14.653-30.759,45.465-50.379,79.84-50.379c48.782,0,88.469,39.687,88.469,88.469C412.26,290.503,263.963,426.851,234.998,452.535z
		"/>
	<path d="M123.596,151.662c4.411,0,8-3.589,8-8s-3.589-8-8-8s-8,3.589-8,8S119.185,151.662,123.596,151.662z"/>
	<path d="M97.597,182.857c-4.411,0-8,3.589-8,8s3.589,8,8,8s8-3.589,8-8S102.008,182.857,97.597,182.857z"/>
	<path d="M317.086,283.654c-4.411,0-8,3.589-8,8s3.589,8,8,8s8-3.589,8-8S321.497,283.654,317.086,283.654z"/>
</g>
<g>
</g>
<g>
</g>
<g>
</g>
<g>
</g>
<g>
</g>
<g>
</g>
<g>
</g>
<g>
</g>
<g>
</g>
<g>
</g>
<g>
</g>
<g>
</g>
<g>
</g>
<g>
</g>
<g>
</g>
</svg>
