<?xml version="1.0" encoding="iso-8859-1"?>
<!-- Generator: Adobe Illustrator 17.1.0, SVG Export Plug-In . SVG Version: 6.00 Build 0)  -->
<!DOCTYPE svg PUBLIC "-//W3C//DTD SVG 1.1//EN" "http://www.w3.org/Graphics/SVG/1.1/DTD/svg11.dtd">
<svg version="1.1" id="Capa_1" xmlns="http://www.w3.org/2000/svg" xmlns:xlink="http://www.w3.org/1999/xlink" x="0px" y="0px"
	 viewBox="0 0 470 470" style="enable-background:new 0 0 470 470;" xml:space="preserve">
<g>
	<path d="M123.431,225.992c-5.54-5.541-12.906-8.592-20.741-8.592c-5.103,0-10.002,1.302-14.333,3.735v-97.665
		c0-16.174-13.159-29.333-29.333-29.333s-29.333,13.159-29.333,29.339l0.122,137.643c0.005,6.282,2.331,15.149,5.409,20.625
		c0.051,0.09,0.103,0.178,0.157,0.266l86.394,139.901c1.794,3.271,3.411,9.494,3.411,13.162V462.5c0,4.142,3.358,7.5,7.5,7.5
		s7.5-3.358,7.5-7.5v-27.425c0-6.283-2.322-15.153-5.401-20.631c-0.051-0.089-0.103-0.178-0.157-0.266L48.233,274.277
		c-1.795-3.273-3.416-9.499-3.419-13.169l-0.122-137.637c0-7.903,6.43-14.333,14.333-14.333s14.333,6.43,14.333,14.333v123.263
		c0,0.176,0.014,0.349,0.026,0.522c0.13,7.336,2.979,14.633,8.565,20.219l67.177,67.177c2.929,2.929,7.678,2.929,10.606,0
		c2.929-2.929,2.929-7.678,0-10.606l-67.177-67.177c-2.707-2.707-4.198-6.306-4.198-10.134c0-3.829,1.491-7.428,4.198-10.135
		c5.589-5.588,14.681-5.588,20.27,0l82.656,82.656c9.226,9.227,17.021,28.044,17.021,41.092L212.5,462.5c0,4.142,3.358,7.5,7.5,7.5
		s7.5-3.358,7.5-7.5l0.001-102.153c0-16.982-9.406-39.691-21.415-51.699L123.431,225.992z"/>
	<path d="M410.976,94.138c-16.174,0-29.333,13.159-29.333,29.333v97.665c-4.33-2.433-9.23-3.735-14.332-3.735
		c-7.835,0-15.201,3.052-20.741,8.592l-82.655,82.656c-12.009,12.007-21.415,34.716-21.415,51.699L242.5,462.5
		c0,4.142,3.358,7.5,7.5,7.5c4.143,0,7.5-3.358,7.5-7.5l-0.001-102.153c0-13.048,7.795-31.866,17.021-41.092l82.656-82.656
		c2.707-2.707,6.306-4.198,10.134-4.198s7.427,1.491,10.135,4.199c2.707,2.707,4.197,6.306,4.197,10.134
		c0,3.828-1.49,7.427-4.198,10.134l-67.176,67.177c-2.929,2.929-2.929,7.678,0,10.606c2.931,2.929,7.679,2.927,10.607,0
		l67.175-67.177c5.541-5.54,8.592-12.906,8.592-20.741V123.471c0-7.903,6.43-14.333,14.333-14.333
		c7.902,0,14.332,6.43,14.332,14.326l-0.121,137.643c-0.004,3.672-1.625,9.897-3.42,13.169l-86.393,139.902
		c-0.055,0.087-0.106,0.176-0.157,0.265c-3.079,5.479-5.401,14.348-5.401,20.631V462.5c0,4.142,3.357,7.5,7.5,7.5s7.5-3.358,7.5-7.5
		v-27.425c0-3.668,1.617-9.891,3.411-13.162l86.393-139.901c0.055-0.087,0.106-0.175,0.156-0.264
		c3.079-5.475,5.405-14.342,5.411-20.626l0.121-137.65C440.308,107.297,427.15,94.138,410.976,94.138z"/>
	<path d="M235.13,263.22c13.386,0.004,26.413,2.512,38.72,7.455c3.844,1.544,8.212-0.32,9.755-4.164s-0.321-8.211-4.165-9.755
		c-12.511-5.025-25.667-7.847-39.175-8.421c-4.302-12.374-1.598-19.024,1.765-27.197c3.684-8.954,8.179-19.899,2.127-37.642
		c27.607-21.317,43.926-54.272,43.926-89.322c0-37.038-18.215-71.745-48.724-92.842c-2.566-1.774-5.965-1.774-8.531,0
		c-30.51,21.098-48.724,55.805-48.724,92.842c0,36.277,17.482,70.31,46.869,91.517c5.612,14.042,2.772,21.023-0.815,29.739
		c-3.369,8.189-7.415,18.046-3.452,33.243c-11.753,1.012-23.205,3.741-34.161,8.165c-3.841,1.551-5.697,5.922-4.146,9.763
		c1.18,2.921,3.989,4.694,6.957,4.694c0.935,0,1.886-0.176,2.806-0.547c12.363-4.992,25.455-7.524,38.913-7.527
		C235.084,263.22,235.092,263.221,235.13,263.22z M197.106,94.173c0-30.347,14.109-58.893,37.99-77.382
		c23.881,18.488,37.989,47.035,37.989,77.382c0,27.015-11.188,52.596-30.489,70.932V48.442c0-4.142-3.357-7.5-7.5-7.5
		c-4.142,0-7.5,3.358-7.5,7.5v116.663C208.294,146.769,197.106,121.188,197.106,94.173z"/>
</g>
<g>
</g>
<g>
</g>
<g>
</g>
<g>
</g>
<g>
</g>
<g>
</g>
<g>
</g>
<g>
</g>
<g>
</g>
<g>
</g>
<g>
</g>
<g>
</g>
<g>
</g>
<g>
</g>
<g>
</g>
</svg>
