<?xml version="1.0" encoding="iso-8859-1"?>
<!-- Generator: Adobe Illustrator 17.1.0, SVG Export Plug-In . SVG Version: 6.00 Build 0)  -->
<!DOCTYPE svg PUBLIC "-//W3C//DTD SVG 1.1//EN" "http://www.w3.org/Graphics/SVG/1.1/DTD/svg11.dtd">
<svg version="1.1" id="Capa_1" xmlns="http://www.w3.org/2000/svg" xmlns:xlink="http://www.w3.org/1999/xlink" x="0px" y="0px"
	 viewBox="0 0 470 470" style="enable-background:new 0 0 470 470;" xml:space="preserve">
<g>
	<path d="M348.015,279.233h-2.5V79.635c0-19.992-7.467-39.121-21.024-53.863c-2.804-3.049-7.548-3.247-10.598-0.443
		c-3.049,2.804-3.247,7.548-0.443,10.597c11.005,11.966,17.065,27.489,17.065,43.709v199.598h-15.88V79.635
		C314.635,35.724,278.911,0,235,0s-79.634,35.724-79.634,79.635v199.598h-15.881V79.635c0-16.221,6.061-31.744,17.067-43.711
		c2.804-3.049,2.605-7.793-0.443-10.597c-3.049-2.804-7.793-2.605-10.598,0.443c-13.559,14.743-21.026,33.872-21.026,53.865v199.598
		h-2.5c-4.142,0-7.5,3.358-7.5,7.5v40.653c0,30.396,12.72,59.769,34.898,80.587c1.39,1.305,3.226,2.032,5.133,2.032h160.969
		c1.907,0,3.743-0.727,5.133-2.032c22.178-20.818,34.898-50.191,34.898-80.587v-40.653
		C355.515,282.591,352.157,279.233,348.015,279.233z M129.485,319.885v-25.653h211.03v25.653H129.485z M254.083,279.233h-38.166
		V79.635c0-10.522,8.561-19.083,19.083-19.083s19.083,8.561,19.083,19.083V279.233z M170.366,79.635
		C170.366,43.995,199.36,15,235,15s64.635,28.995,64.635,64.635v199.598h-30.552V79.635c0-18.793-15.29-34.083-34.083-34.083
		s-34.083,15.29-34.083,34.083v199.598h-30.551V79.635z M312.453,395.004H157.547c-16.342-16.272-26.03-37.308-27.773-60.118
		h210.453C338.483,357.696,328.796,378.732,312.453,395.004z"/>
	<path d="M294.714,425.002H173.746c-4.142,0-7.5,3.358-7.5,7.5s3.358,7.5,7.5,7.5h120.969c4.142,0,7.5-3.358,7.5-7.5
		S298.856,425.002,294.714,425.002z"/>
	<path d="M284.714,455H183.746c-4.142,0-7.5,3.358-7.5,7.5s3.358,7.5,7.5,7.5h100.969c4.142,0,7.5-3.358,7.5-7.5
		S288.856,455,284.714,455z"/>
</g>
<g>
</g>
<g>
</g>
<g>
</g>
<g>
</g>
<g>
</g>
<g>
</g>
<g>
</g>
<g>
</g>
<g>
</g>
<g>
</g>
<g>
</g>
<g>
</g>
<g>
</g>
<g>
</g>
<g>
</g>
</svg>
