<?xml version="1.0" encoding="iso-8859-1"?>
<!-- Generator: Adobe Illustrator 17.1.0, SVG Export Plug-In . SVG Version: 6.00 Build 0)  -->
<!DOCTYPE svg PUBLIC "-//W3C//DTD SVG 1.1//EN" "http://www.w3.org/Graphics/SVG/1.1/DTD/svg11.dtd">
<svg version="1.1" id="Capa_1" xmlns="http://www.w3.org/2000/svg" xmlns:xlink="http://www.w3.org/1999/xlink" x="0px" y="0px"
	 viewBox="0 0 470 470" style="enable-background:new 0 0 470 470;" xml:space="preserve">
<g>
	<path d="M421.536,201.778h0.188c4.143,0,7.5-3.358,7.5-7.5s-3.357-7.5-7.5-7.5h-89.782c-4.143,0-7.5,3.358-7.5,7.5
		s3.357,7.5,7.5,7.5h74.593c0.775,86.926,15.02,172.02,42.395,253.222h-83.268c-39.302-113.474-59.615-232.676-60.416-354.52h3.106
		c4.143,0,7.5-3.358,7.5-7.5s-3.357-7.5-7.5-7.5H62.522c-4.143,0-7.5,3.358-7.5,7.5s3.357,7.5,7.5,7.5h3.106
		C64.815,224.118,43.926,345.039,3.479,460.011c-0.807,2.294-0.451,4.838,0.955,6.824S8.122,470,10.555,470h349.765h99.126
		c2.433,0,4.714-1.18,6.12-3.165s1.762-4.529,0.955-6.824C437.463,377.414,422.342,290.574,421.536,201.778z M21.09,455
		c38.744-113.582,58.75-232.756,59.539-354.52h209.616c0.79,121.764,20.796,240.938,59.539,354.52H21.09z"/>
	<path d="M185.437,300.565c-12.929,0-23.446,10.518-23.446,23.446s10.518,23.446,23.446,23.446
		c12.928,0,23.445-10.518,23.445-23.446S198.365,300.565,185.437,300.565z M185.437,332.457c-4.657,0-8.446-3.789-8.446-8.446
		s3.789-8.446,8.446-8.446s8.445,3.789,8.445,8.446S190.095,332.457,185.437,332.457z"/>
	<path d="M192.937,278.694v-51.279c0-4.142-3.357-7.5-7.5-7.5s-7.5,3.358-7.5,7.5v51.279c0,4.142,3.357,7.5,7.5,7.5
		S192.937,282.836,192.937,278.694z"/>
	<path d="M142.442,340.174l-44.41,25.64c-3.587,2.071-4.816,6.658-2.745,10.245c1.389,2.406,3.91,3.751,6.502,3.751
		c1.272,0,2.563-0.324,3.743-1.006l44.41-25.64c3.587-2.071,4.816-6.658,2.745-10.245
		C150.617,339.332,146.027,338.103,142.442,340.174z"/>
	<path d="M272.842,365.813l-44.41-25.64c-3.59-2.072-8.175-0.842-10.245,2.745c-2.071,3.587-0.842,8.174,2.745,10.245l44.41,25.64
		c1.182,0.682,2.471,1.006,3.743,1.006c2.592,0,5.113-1.346,6.502-3.751C277.658,372.471,276.429,367.884,272.842,365.813z"/>
	<path d="M238.71,144.724h30c4.143,0,7.5-3.358,7.5-7.5s-3.357-7.5-7.5-7.5h-30c-4.143,0-7.5,3.358-7.5,7.5
		S234.567,144.724,238.71,144.724z"/>
	<path d="M208.71,129.724H102.164c-4.143,0-7.5,3.358-7.5,7.5s3.357,7.5,7.5,7.5H208.71c4.143,0,7.5-3.358,7.5-7.5
		S212.852,129.724,208.71,129.724z"/>
	<path d="M331.941,171.803c4.143,0,7.5-3.358,7.5-7.5c0-15.427,12.551-27.979,27.979-27.979h30.041c2.874,0,5.496-1.643,6.749-4.229
		c4.722-9.744,14.376-15.797,25.194-15.797h30.041c4.143,0,7.5-3.358,7.5-7.5s-3.357-7.5-7.5-7.5h-30.041
		c-14.741,0-28.526,7.725-36.335,20.027H367.42c-23.698,0-42.979,19.28-42.979,42.979
		C324.441,168.445,327.799,171.803,331.941,171.803z"/>
	<path d="M185.437,70.505c4.143,0,7.5-3.358,7.5-7.5c0-15.427,12.551-27.979,27.978-27.979h30.041c2.874,0,5.496-1.643,6.749-4.229
		C262.428,21.053,272.082,15,282.899,15h30.041c4.143,0,7.5-3.358,7.5-7.5s-3.357-7.5-7.5-7.5h-30.041
		c-14.739,0-28.524,7.725-36.335,20.027h-25.649c-23.698,0-42.978,19.28-42.978,42.979
		C177.937,67.147,181.295,70.505,185.437,70.505z"/>
</g>
<g>
</g>
<g>
</g>
<g>
</g>
<g>
</g>
<g>
</g>
<g>
</g>
<g>
</g>
<g>
</g>
<g>
</g>
<g>
</g>
<g>
</g>
<g>
</g>
<g>
</g>
<g>
</g>
<g>
</g>
</svg>
