<?xml version="1.0" encoding="iso-8859-1"?>
<!-- Generator: Adobe Illustrator 17.1.0, SVG Export Plug-In . SVG Version: 6.00 Build 0)  -->
<!DOCTYPE svg PUBLIC "-//W3C//DTD SVG 1.1//EN" "http://www.w3.org/Graphics/SVG/1.1/DTD/svg11.dtd">
<svg version="1.1" id="Capa_1" xmlns="http://www.w3.org/2000/svg" xmlns:xlink="http://www.w3.org/1999/xlink" x="0px" y="0px"
	 viewBox="0 0 470 470" style="enable-background:new 0 0 470 470;" xml:space="preserve">
<g>
	<path d="M333.681,227.141c-2.613,0-5.038,1.36-6.4,3.59c-0.109,0.179-11.102,18.204-23.432,41.336
		c-1.948,3.655-0.564,8.198,3.091,10.146c3.656,1.947,8.198,0.565,10.146-3.091c6.354-11.921,12.341-22.452,16.612-29.796
		c18.608,31.925,51.237,93.225,51.237,118.852c0,27.848-21.798,50.343-49.626,51.21c-4.14,0.129-7.392,3.59-7.263,7.73
		c0.127,4.061,3.458,7.266,7.492,7.266c0.079,0,0.159-0.001,0.238-0.003c17.255-0.539,33.392-7.662,45.436-20.059
		c12.074-12.427,18.723-28.814,18.723-46.145c0-39.053-57.41-133.449-59.854-137.448C338.718,228.5,336.294,227.141,333.681,227.141
		z"/>
	<path d="M134.691,419.388c-27.828-0.868-49.626-23.362-49.626-51.21c0-25.614,32.63-86.921,51.237-118.852
		c4.269,7.34,10.253,17.867,16.611,29.796c1.948,3.656,6.492,5.038,10.146,3.091c3.655-1.949,5.039-6.491,3.091-10.146
		c-12.331-23.132-23.323-41.157-23.432-41.336c-1.362-2.23-3.787-3.59-6.4-3.59c-2.613,0-5.037,1.36-6.399,3.589
		c-2.444,3.999-59.854,98.395-59.854,137.448c0,17.33,6.649,33.718,18.723,46.145c12.044,12.397,28.181,19.521,45.436,20.059
		c0.08,0.002,0.159,0.003,0.238,0.003c4.034,0,7.365-3.206,7.492-7.266C142.083,422.979,138.832,419.518,134.691,419.388z"/>
	<path d="M235,191.573c-2.613,0-5.037,1.36-6.399,3.589c-3.332,5.451-81.59,134.12-81.59,186.848c0,48.518,39.472,87.99,87.99,87.99
		s87.99-39.472,87.99-87.99c0-52.728-78.259-181.397-81.59-186.848C240.037,192.933,237.613,191.573,235,191.573z M235,455
		c-40.247,0-72.99-32.743-72.99-72.99c0-40.273,54.113-136.077,72.99-168.271c18.881,32.196,72.989,127.986,72.989,168.271
		C307.99,422.257,275.247,455,235,455z"/>
	<path d="M227.5,432.523c0,4.142,3.358,7.5,7.5,7.5c31.989,0,58.013-26.024,58.013-58.013c0-4.142-3.358-7.5-7.5-7.5
		s-7.5,3.358-7.5,7.5c0,23.718-19.295,43.013-43.013,43.013C230.858,425.023,227.5,428.381,227.5,432.523z"/>
	<path d="M356.569,75.859c-5.136,0-10.263,0.422-15.314,1.259C326.413,31.367,283.7,0,235,0s-91.413,31.367-106.254,77.118
		c-5.052-0.836-10.178-1.259-15.314-1.259c-51.411,0-93.237,41.826-93.237,93.237c0,4.142,3.358,7.5,7.5,7.5h354.658
		c4.142,0,7.5-3.358,7.5-7.5s-3.358-7.5-7.5-7.5H35.551c3.788-39.634,37.271-70.737,77.88-70.737c6.343,0,12.666,0.766,18.794,2.277
		c3.995,0.983,8.042-1.436,9.062-5.427C152.219,44.899,190.755,15,235,15s82.781,29.899,93.713,72.709
		c1.019,3.99,5.063,6.41,9.062,5.427c6.128-1.511,12.452-2.277,18.794-2.277c40.609,0,74.092,31.104,77.88,70.737h-22.12
		c-4.142,0-7.5,3.358-7.5,7.5s3.358,7.5,7.5,7.5h29.977c4.142,0,7.5-3.358,7.5-7.5C449.806,117.685,407.98,75.859,356.569,75.859z"
		/>
</g>
<g>
</g>
<g>
</g>
<g>
</g>
<g>
</g>
<g>
</g>
<g>
</g>
<g>
</g>
<g>
</g>
<g>
</g>
<g>
</g>
<g>
</g>
<g>
</g>
<g>
</g>
<g>
</g>
<g>
</g>
</svg>
