<?xml version="1.0" encoding="iso-8859-1"?>
<!-- Generator: Adobe Illustrator 17.1.0, SVG Export Plug-In . SVG Version: 6.00 Build 0)  -->
<!DOCTYPE svg PUBLIC "-//W3C//DTD SVG 1.1//EN" "http://www.w3.org/Graphics/SVG/1.1/DTD/svg11.dtd">
<svg version="1.1" id="Capa_1" xmlns="http://www.w3.org/2000/svg" xmlns:xlink="http://www.w3.org/1999/xlink" x="0px" y="0px"
	 viewBox="0 0 470 470" style="enable-background:new 0 0 470 470;" xml:space="preserve">
<g>
	<path d="M229.988,282.103c-2.866-2.99-7.614-3.091-10.604-0.224c-2.99,2.866-3.091,7.614-0.224,10.604l8.688,9.063h-77.916
		l22.321-38.662c2.071-3.587,0.842-8.174-2.745-10.245c-3.588-2.072-8.175-0.842-10.245,2.745l-28.816,49.912
		c-1.34,2.32-1.34,5.18,0,7.5s3.815,3.75,6.495,3.75h90.906l-8.687,9.063c-2.867,2.99-2.766,7.738,0.224,10.604
		c1.454,1.394,3.322,2.086,5.189,2.086c1.973,0,3.942-0.773,5.415-2.31l20.853-21.752c2.781-2.901,2.781-7.479,0-10.38
		L229.988,282.103z"/>
	<path d="M294.101,226.568l12.192,2.992c4.021,0.986,8.084-1.473,9.071-5.496c0.987-4.022-1.473-8.084-5.496-9.071l-29.265-7.183
		c-3.901-0.959-7.868,1.33-8.989,5.19l-8.412,28.935c-1.157,3.978,1.13,8.139,5.108,9.295c0.699,0.204,1.404,0.3,2.097,0.3
		c3.25,0,6.245-2.13,7.198-5.408l3.505-12.055l38.958,67.478h-44.643c-4.142,0-7.5,3.358-7.5,7.5s3.358,7.5,7.5,7.5h57.633
		c2.68,0,5.155-1.43,6.495-3.75s1.34-5.18,0-7.5L294.101,226.568z"/>
	<path d="M267.579,195.629c3.587-2.071,4.816-6.658,2.745-10.245l-28.829-49.932c-1.34-2.32-3.815-3.75-6.495-3.75
		s-5.155,1.43-6.495,3.75l-45.453,78.727l-3.505-12.055c-1.156-3.977-5.317-6.265-9.295-5.108c-3.978,1.156-6.265,5.318-5.108,9.295
		l8.412,28.935c0.95,3.267,3.935,5.408,7.197,5.408c0.592,0,1.193-0.07,1.792-0.218l29.265-7.182
		c4.023-0.987,6.483-5.048,5.496-9.071c-0.987-4.022-5.052-6.485-9.071-5.496l-12.193,2.992L235,154.202l22.333,38.682
		C259.404,196.472,263.992,197.702,267.579,195.629z"/>
	<path d="M397.75,104.849L295.098,2.197C293.691,0.79,291.784,0,289.794,0H77.553c-4.142,0-7.5,3.358-7.5,7.5v455
		c0,4.142,3.358,7.5,7.5,7.5h314.894c4.142,0,7.5-3.358,7.5-7.5V110.152C399.947,108.163,399.157,106.255,397.75,104.849z
		 M297.294,25.606l77.046,77.046h-77.046V25.606z M85.053,455V15h197.241v95.152c0,4.142,3.358,7.5,7.5,7.5h95.152V455H85.053z"/>
</g>
<g>
</g>
<g>
</g>
<g>
</g>
<g>
</g>
<g>
</g>
<g>
</g>
<g>
</g>
<g>
</g>
<g>
</g>
<g>
</g>
<g>
</g>
<g>
</g>
<g>
</g>
<g>
</g>
<g>
</g>
</svg>
