<?xml version="1.0" encoding="iso-8859-1"?>
<!-- Generator: Adobe Illustrator 17.1.0, SVG Export Plug-In . SVG Version: 6.00 Build 0)  -->
<!DOCTYPE svg PUBLIC "-//W3C//DTD SVG 1.1//EN" "http://www.w3.org/Graphics/SVG/1.1/DTD/svg11.dtd">
<svg version="1.1" id="Capa_1" xmlns="http://www.w3.org/2000/svg" xmlns:xlink="http://www.w3.org/1999/xlink" x="0px" y="0px"
	 viewBox="0 0 470 470" style="enable-background:new 0 0 470 470;" xml:space="preserve">
<g>
	<path d="M364.287,415.474l-78.224-144.728v-61.12h2.5c4.142,0,7.5-3.358,7.5-7.5s-3.358-7.5-7.5-7.5h-46.071l-0.001-22.366
		c26.518-19.853,42.238-51.068,42.238-84.299c0-34.559-16.996-66.944-45.464-86.63c-2.566-1.774-5.965-1.774-8.531,0
		c-28.468,19.686-45.464,52.071-45.464,86.63c0,33.224,15.713,64.432,42.221,84.285l0.001,22.38h-46.056c-4.142,0-7.5,3.358-7.5,7.5
		s3.358,7.5,7.5,7.5h2.5v61.12l-78.224,144.728c-7.554,13.977-8.237,27.508-1.921,38.1C110.106,464.166,122.335,470,138.223,470
		h193.554c15.888,0,28.117-5.833,34.432-16.426C372.524,442.982,371.841,429.451,364.287,415.474z M200.27,87.961
		c0-27.866,12.89-54.086,34.729-71.155c21.839,17.069,34.729,43.29,34.729,71.155c0,24.51-9.976,47.745-27.239,64.601L242.485,49.13
		c0-4.142-3.358-7.5-7.5-7.5s-7.5,3.358-7.5,7.5l0.005,103.413C210.239,135.688,200.27,112.463,200.27,87.961z M353.325,445.892
		c-3.501,5.873-11.154,9.107-21.548,9.107H138.223c-10.394,0-18.046-3.234-21.548-9.107c-3.502-5.873-2.708-14.143,2.234-23.287
		l79.126-146.396c0.592-1.095,0.902-2.321,0.902-3.566v-63.017h72.126v63.017c0,1.245,0.31,2.471,0.902,3.566l79.126,146.397
		C356.033,431.75,356.827,440.02,353.325,445.892z"/>
	<path d="M310.434,378.931c-0.345-0.639-0.782-1.224-1.295-1.737c-18.038-18.038-41.47-28.696-66.64-30.467l-0.007-114.602
		c0-4.142-3.358-7.5-7.5-7.5s-7.5,3.358-7.5,7.5l0.007,114.601c-25.169,1.771-48.601,12.429-66.639,30.467
		c-0.513,0.513-0.95,1.099-1.295,1.737l-27.025,50.001c-1.256,2.324-1.197,5.138,0.156,7.407s3.8,3.659,6.442,3.659h30.001
		c4.142,0,7.5-3.358,7.5-7.5s-3.358-7.5-7.5-7.5h-17.422l20.513-37.953c16.895-16.508,39.142-25.584,62.769-25.584
		s45.874,9.077,62.769,25.584l20.513,37.953H199.141c-4.142,0-7.5,3.358-7.5,7.5s3.358,7.5,7.5,7.5h131.721
		c2.642,0,5.089-1.39,6.442-3.659s1.412-5.083,0.156-7.407L310.434,378.931z"/>
</g>
<g>
</g>
<g>
</g>
<g>
</g>
<g>
</g>
<g>
</g>
<g>
</g>
<g>
</g>
<g>
</g>
<g>
</g>
<g>
</g>
<g>
</g>
<g>
</g>
<g>
</g>
<g>
</g>
<g>
</g>
</svg>
