<?xml version="1.0" encoding="iso-8859-1"?>
<!-- Generator: Adobe Illustrator 17.1.0, SVG Export Plug-In . SVG Version: 6.00 Build 0)  -->
<!DOCTYPE svg PUBLIC "-//W3C//DTD SVG 1.1//EN" "http://www.w3.org/Graphics/SVG/1.1/DTD/svg11.dtd">
<svg version="1.1" id="Capa_1" xmlns="http://www.w3.org/2000/svg" xmlns:xlink="http://www.w3.org/1999/xlink" x="0px" y="0px"
	 viewBox="0 0 470.002 470.002" style="enable-background:new 0 0 470.002 470.002;" xml:space="preserve">
<g>
	<path d="M190.634,273.401c-2.198-0.365-4.441,0.266-6.126,1.721c-1.686,1.455-2.638,3.583-2.6,5.808l0.221,12.723
		c0.072,4.142,3.49,7.451,7.629,7.369c4.142-0.072,7.44-3.488,7.369-7.629l-0.021-1.256c5.44,4.292,8.449,11.34,7.238,18.647
		c-1.77,10.683-11.899,17.935-22.585,16.164c-4.083-0.679-7.948,2.087-8.625,6.173c-0.677,4.086,2.087,7.948,6.174,8.625
		c1.908,0.316,3.807,0.469,5.681,0.469c16.63,0,31.348-12.045,34.154-28.979C222.265,294.393,209.476,276.523,190.634,273.401z"/>
	<path d="M395.261,302.059c-9.218-2.995-18.764-4.514-28.372-4.514c-18.648,0-37.13,5.845-52.486,16.524l-18.557-6.031
		c2.199-8.796,3.338-17.925,3.338-27.239c0-9.391-1.173-18.511-3.37-27.229l18.589-6.042c15.356,10.678,33.838,16.524,52.486,16.524
		c9.608,0,19.154-1.519,28.372-4.514c28.659-9.312,50.937-32.132,59.59-61.043c0.896-2.99-0.154-6.221-2.636-8.114
		c-15.955-12.17-35.742-18.873-55.717-18.873c-9.608,0-19.155,1.519-28.373,4.514c-27.388,8.899-48.938,30.139-58.349,57.238
		l-18.608,6.047c-6.926-17.203-18.023-32.292-32.034-44.01l11.531-15.868c28.637-0.582,55.618-14.615,72.467-37.807
		c17.713-24.378,22.322-55.934,12.33-84.412c-1.033-2.945-3.782-4.942-6.902-5.015c-0.714-0.017-1.432-0.025-2.146-0.025
		c-29.326,0-57.112,14.144-74.325,37.835c-16.927,23.299-21.877,53.15-13.561,80.608l-11.519,15.851
		c-15.188-9.577-32.837-15.586-51.767-16.851V150.05c22.865-17.325,36.407-44.384,36.407-73.182
		c0-30.134-14.819-58.373-39.642-75.537c-2.566-1.774-5.965-1.774-8.531,0c-24.822,17.165-39.642,45.403-39.642,75.537
		c0,28.798,13.542,55.858,36.407,73.182v19.565c-18.929,1.264-36.579,7.274-51.767,16.851l-11.519-15.851
		c8.316-27.457,3.367-57.309-13.561-80.608C86.185,66.317,58.401,52.173,29.074,52.173c-0.716,0-1.431,0.008-2.146,0.025
		c-3.12,0.073-5.869,2.07-6.902,5.015c-9.992,28.476-5.384,60.032,12.329,84.411c16.848,23.19,43.828,37.224,72.468,37.808
		l11.531,15.867c-24.026,20.094-39.483,50.101-40.028,83.671l-15.35,30.444c-1.864,3.698-0.378,8.208,3.32,10.073
		c1.083,0.546,2.235,0.805,3.371,0.805c2.742,0,5.384-1.509,6.703-4.125l1.933-3.833v55.006c0,20.382,16.582,36.963,36.99,36.963
		l40.938-0.145c8.939,22.904,23.209,59.473,23.792,60.981c0.04,0.105,0.082,0.21,0.127,0.315c1.219,2.844,3.987,4.547,6.897,4.547
		c0.985,0,1.987-0.196,2.95-0.608c0.272-0.117,6.634-2.942,3.747-10.355l-25.41-65.125c-1.123-2.879-3.897-4.773-6.986-4.773
		c-0.026,0-46.081,0.163-46.081,0.163c-12.111,0-21.964-9.853-21.964-21.963v-8.77h12.5c4.143,0,7.5-3.358,7.5-7.5
		s-3.357-7.5-7.5-7.5h-12.5V288.3h17.526c-0.161,2.945,1.436,5.833,4.264,7.182c3.735,1.78,8.214,0.195,9.997-3.543l3.771-7.911
		c1.107-2.324,0.945-5.053-0.428-7.23c-1.374-2.177-3.769-3.497-6.343-3.497H91.591c3.84-49.687,45.498-88.942,96.153-88.942
		c53.178,0,96.441,43.264,96.441,96.442c0,26.125-10.294,50.594-28.984,68.897c-2.147,2.103-2.832,5.285-1.739,8.085l20.969,53.73
		c3.664,9.388,13.662,20.134,22.762,24.464l69.973,33.296c3.74,1.78,8.215,0.19,9.995-3.55c1.779-3.74,0.19-8.215-3.55-9.995
		l-69.973-33.296c-5.684-2.705-12.945-10.509-15.234-16.373l-19.209-49.223c9.547-10.202,16.962-21.887,22.033-34.525l18.55,6.029
		c9.412,27.098,30.961,48.339,58.349,57.238c9.217,2.995,18.763,4.513,28.372,4.514c19.977,0,39.764-6.703,55.718-18.873
		c2.481-1.893,3.531-5.125,2.636-8.114C446.198,334.191,423.921,311.371,395.261,302.059z M372.76,190.288
		c7.719-2.508,15.706-3.779,23.738-3.779c14.941,0,29.764,4.488,42.283,12.725c-8.197,21.792-25.87,38.799-48.155,46.04
		c-7.719,2.508-15.705,3.78-23.737,3.779c-11.552,0-23.027-2.693-33.428-7.717l74.878-24.335c3.939-1.28,6.095-5.512,4.814-9.451
		c-1.28-3.94-5.512-6.092-9.451-4.815l-74.893,24.34C338.087,209.765,353.742,196.469,372.76,190.288z M284.224,98.824
		c13.711-18.87,35.439-30.5,58.671-31.571c6.177,22.448,1.876,46.597-11.897,65.554c-11.699,16.102-29.234,26.925-48.559,30.421
		l46.264-63.665c2.435-3.351,1.692-8.041-1.658-10.476c-3.351-2.434-8.041-1.693-10.477,1.659l-46.276,63.682
		C267.62,134.969,272.468,115.005,284.224,98.824z M44.489,132.807c-13.773-18.958-18.074-43.106-11.896-65.553
		c23.23,1.071,44.96,12.701,58.67,31.57c11.757,16.182,16.605,36.145,13.933,55.604L58.92,90.747
		c-2.436-3.353-7.127-4.092-10.477-1.659c-3.351,2.435-4.093,7.125-1.658,10.476l46.262,63.663
		C73.722,159.729,56.186,148.906,44.489,132.807z M158.837,76.868c0-23.433,10.716-45.498,28.907-60.027
		c18.191,14.53,28.907,36.595,28.907,60.027c0,19.999-7.811,38.998-21.407,53.17V51.302c0-4.142-3.357-7.5-7.5-7.5
		s-7.5,3.358-7.5,7.5v78.736C166.647,115.866,158.837,96.867,158.837,76.868z M396.503,375.09c-8.037,0-16.024-1.272-23.742-3.779
		c-19.018-6.18-34.673-19.477-43.95-36.786l74.893,24.34c0.771,0.25,1.552,0.369,2.32,0.369c3.16,0,6.101-2.015,7.131-5.184
		c1.28-3.939-0.875-8.171-4.814-9.451l-74.878-24.335c10.401-5.024,21.876-7.718,33.428-7.718c8.032,0,16.019,1.271,23.737,3.779
		c22.285,7.241,39.958,24.248,48.155,46.04C426.262,370.601,411.442,375.09,396.503,375.09z"/>
</g>
<g>
</g>
<g>
</g>
<g>
</g>
<g>
</g>
<g>
</g>
<g>
</g>
<g>
</g>
<g>
</g>
<g>
</g>
<g>
</g>
<g>
</g>
<g>
</g>
<g>
</g>
<g>
</g>
<g>
</g>
</svg>
