<?xml version="1.0" encoding="iso-8859-1"?>
<!-- Generator: Adobe Illustrator 17.1.0, SVG Export Plug-In . SVG Version: 6.00 Build 0)  -->
<!DOCTYPE svg PUBLIC "-//W3C//DTD SVG 1.1//EN" "http://www.w3.org/Graphics/SVG/1.1/DTD/svg11.dtd">
<svg version="1.1" id="Capa_1" xmlns="http://www.w3.org/2000/svg" xmlns:xlink="http://www.w3.org/1999/xlink" x="0px" y="0px"
	 viewBox="0 0 470 470" style="enable-background:new 0 0 470 470;" xml:space="preserve">
<g>
	<path d="M235,302.825c-23.71,0-43,19.29-43,43s19.29,43,43,43s43-19.29,43-43S258.71,302.825,235,302.825z M235,373.825
		c-15.439,0-28-12.561-28-28s12.561-28,28-28s28,12.561,28,28S250.439,373.825,235,373.825z"/>
	<path d="M351.026,298.439l-16.976-29.403c-0.994-1.723-2.633-2.979-4.554-3.495c-1.919-0.513-3.968-0.245-5.691,0.75
		l-21.614,12.479c-11.827-11.833-26.661-20.417-42.716-24.723V229.15c0-4.142-3.357-7.5-7.5-7.5h-33.951c-4.143,0-7.5,3.358-7.5,7.5
		v24.897c-16.055,4.306-30.888,12.89-42.716,24.723l-21.614-12.479c-1.724-0.995-3.771-1.264-5.691-0.75
		c-1.921,0.515-3.56,1.772-4.554,3.495l-16.976,29.403c-2.071,3.587-0.842,8.174,2.745,10.245l21.565,12.451
		c-2.178,8.053-3.278,16.332-3.278,24.69c0,8.358,1.101,16.637,3.278,24.689l-21.565,12.451c-3.587,2.071-4.816,6.658-2.745,10.245
		l16.976,29.403c0.994,1.723,2.633,2.979,4.554,3.495c1.921,0.515,3.968,0.246,5.691-0.75l21.614-12.479
		c11.827,11.833,26.661,20.417,42.716,24.723V462.5c0,4.142,3.357,7.5,7.5,7.5h33.951c4.143,0,7.5-3.358,7.5-7.5v-24.897
		c16.056-4.306,30.889-12.89,42.716-24.723l21.614,12.479c1.723,0.995,3.771,1.263,5.691,0.75c1.921-0.515,3.56-1.772,4.554-3.495
		l16.976-29.403c2.071-3.587,0.842-8.174-2.745-10.245l-21.565-12.451c2.178-8.052,3.278-16.331,3.278-24.689
		s-1.101-16.638-3.278-24.69l21.565-12.451C351.868,306.613,353.098,302.026,351.026,298.439z M314.053,311.125
		c-3.104,1.792-4.506,5.528-3.348,8.919c2.846,8.331,4.289,17.004,4.289,25.78c0,8.775-1.443,17.449-4.289,25.78
		c-1.158,3.391,0.244,7.128,3.348,8.919l20.233,11.682l-9.476,16.413l-20.271-11.704c-3.101-1.791-7.032-1.139-9.391,1.552
		c-11.629,13.269-27.478,22.441-44.626,25.827c-3.514,0.694-6.047,3.776-6.047,7.358V455h-18.951v-23.348
		c0-3.582-2.533-6.664-6.047-7.358c-17.148-3.386-32.997-12.559-44.626-25.827c-2.359-2.69-6.289-3.341-9.391-1.552l-20.271,11.704
		l-9.476-16.413l20.233-11.682c3.104-1.792,4.506-5.528,3.348-8.919c-2.846-8.331-4.289-17.004-4.289-25.78
		c0-8.776,1.443-17.449,4.289-25.78c1.158-3.391-0.244-7.128-3.348-8.919l-20.233-11.682l9.476-16.413l20.271,11.704
		c3.1,1.791,7.032,1.14,9.391-1.552c11.629-13.269,27.478-22.441,44.626-25.827c3.514-0.694,6.047-3.776,6.047-7.358V236.65h18.951
		v23.348c0,3.582,2.533,6.664,6.047,7.358c17.148,3.386,32.997,12.559,44.626,25.827c2.358,2.69,6.289,3.342,9.391,1.552
		l20.271-11.704l9.476,16.413L314.053,311.125z"/>
	<path d="M377.843,77.348c-1.378-2.159-3.762-3.465-6.322-3.465s-4.944,1.306-6.321,3.464
		c-9.397,14.721-23.688,23.164-39.204,23.164c-15.475,0-29.747-8.444-39.158-23.167c-1.378-2.155-3.759-3.459-6.316-3.46
		c-2.56,0-4.94,1.303-6.319,3.456c-9.429,14.726-23.714,23.172-39.193,23.172c-15.483,0-29.763-8.444-39.175-23.167
		c-1.379-2.156-3.761-3.46-6.319-3.46c-2.563,0.001-4.944,1.307-6.322,3.465c-9.396,14.72-23.679,23.163-39.187,23.163
		c-15.484,0-29.764-8.444-39.175-23.167c-1.378-2.155-3.759-3.459-6.316-3.46c-2.56,0-4.94,1.303-6.319,3.456
		c-9.429,14.726-23.714,23.172-39.192,23.172c-4.143,0-7.5,3.358-7.5,7.5s3.357,7.5,7.5,7.5c17.131,0,33.543-7.937,45.505-21.646
		c11.95,13.707,28.361,21.646,45.498,21.646c17.155,0,33.569-7.935,45.512-21.638c11.951,13.704,28.357,21.638,45.491,21.638
		c17.13,0,33.544-7.938,45.506-21.646c11.948,13.708,28.354,21.646,45.481,21.646c17.162,0,33.58-7.933,45.524-21.635
		c11.939,13.702,28.341,21.635,45.479,21.635c4.143,0,7.5-3.358,7.5-7.5s-3.357-7.5-7.5-7.5
		C401.511,100.511,387.239,92.068,377.843,77.348z"/>
	<path d="M462.5,174.395c-15.488,0-29.76-8.443-39.156-23.163c-1.378-2.159-3.762-3.465-6.322-3.465s-4.944,1.306-6.322,3.465
		c-9.396,14.72-23.685,23.163-39.202,23.163c-15.474,0-29.747-8.444-39.159-23.167c-1.378-2.155-3.759-3.459-6.316-3.46
		c-2.56,0-4.94,1.303-6.319,3.456c-9.428,14.726-23.713,23.172-39.192,23.172c-15.483,0-29.763-8.444-39.175-23.167
		c-1.379-2.156-3.761-3.46-6.319-3.46c-2.563,0.001-4.944,1.307-6.322,3.465c-9.396,14.72-23.679,23.163-39.187,23.163
		c-15.484,0-29.764-8.444-39.175-23.167c-1.378-2.155-3.759-3.459-6.316-3.46c-2.56,0-4.94,1.303-6.319,3.456
		c-9.429,14.726-23.714,23.172-39.192,23.172c-15.484,0-29.764-8.444-39.175-23.167c-1.378-2.156-3.761-3.46-6.319-3.46
		c-2.563,0.001-4.944,1.307-6.322,3.465c-9.396,14.72-23.68,23.163-39.188,23.163c-4.143,0-7.5,3.358-7.5,7.5s3.357,7.5,7.5,7.5
		c17.156,0,33.57-7.935,45.513-21.638c11.95,13.704,28.356,21.638,45.491,21.638c17.131,0,33.543-7.937,45.505-21.646
		c11.95,13.707,28.361,21.646,45.498,21.646c17.155,0,33.569-7.935,45.512-21.638c11.951,13.704,28.357,21.638,45.491,21.638
		c17.131,0,33.544-7.938,45.505-21.646c11.95,13.708,28.354,21.646,45.482,21.646c17.162,0,33.58-7.933,45.523-21.634
		c11.939,13.702,28.342,21.634,45.479,21.634c4.143,0,7.5-3.358,7.5-7.5S466.643,174.395,462.5,174.395z"/>
	<path d="M7.5,41.628c17.156,0,33.57-7.935,45.513-21.638c11.95,13.704,28.356,21.638,45.491,21.638
		c17.131,0,33.543-7.937,45.505-21.646c11.95,13.707,28.361,21.646,45.498,21.646c17.155,0,33.569-7.935,45.512-21.638
		c11.951,13.704,28.357,21.638,45.491,21.638c17.131,0,33.544-7.938,45.505-21.646c11.95,13.708,28.354,21.646,45.482,21.646
		c17.162,0,33.58-7.933,45.523-21.634c11.939,13.702,28.342,21.634,45.479,21.634c4.143,0,7.5-3.358,7.5-7.5s-3.357-7.5-7.5-7.5
		c-15.488,0-29.76-8.443-39.156-23.163C421.966,1.306,419.582,0,417.021,0s-4.944,1.306-6.322,3.465
		c-9.396,14.72-23.685,23.163-39.202,23.163c-15.474,0-29.747-8.444-39.159-23.167c-1.378-2.155-3.759-3.459-6.316-3.46
		c-2.56,0-4.94,1.303-6.319,3.456c-9.428,14.726-23.713,23.172-39.192,23.172c-15.483,0-29.763-8.444-39.175-23.167
		C239.956,1.304,237.574,0,235.016,0c-2.563,0.001-4.944,1.307-6.322,3.465c-9.396,14.72-23.679,23.163-39.187,23.163
		c-15.484,0-29.764-8.444-39.175-23.167c-1.378-2.155-3.759-3.459-6.316-3.46c-2.56,0-4.94,1.303-6.319,3.456
		c-9.429,14.726-23.714,23.172-39.192,23.172c-15.484,0-29.764-8.444-39.175-23.167C57.951,1.304,55.568,0,53.01,0
		c-2.563,0.001-4.944,1.307-6.322,3.465C37.291,18.185,23.008,26.628,7.5,26.628c-4.143,0-7.5,3.358-7.5,7.5
		S3.357,41.628,7.5,41.628z"/>
</g>
<g>
</g>
<g>
</g>
<g>
</g>
<g>
</g>
<g>
</g>
<g>
</g>
<g>
</g>
<g>
</g>
<g>
</g>
<g>
</g>
<g>
</g>
<g>
</g>
<g>
</g>
<g>
</g>
<g>
</g>
</svg>
