<?xml version="1.0" encoding="iso-8859-1"?>
<!-- Generator: Adobe Illustrator 17.1.0, SVG Export Plug-In . SVG Version: 6.00 Build 0)  -->
<!DOCTYPE svg PUBLIC "-//W3C//DTD SVG 1.1//EN" "http://www.w3.org/Graphics/SVG/1.1/DTD/svg11.dtd">
<svg version="1.1" id="Capa_1" xmlns="http://www.w3.org/2000/svg" xmlns:xlink="http://www.w3.org/1999/xlink" x="0px" y="0px"
	 viewBox="0 0 470 470" style="enable-background:new 0 0 470 470;" xml:space="preserve">
<g>
	<path d="M401.462,86.038c4.142,0,7.5-3.358,7.5-7.5s-3.358-7.5-7.5-7.5h-2.5V15h2.5c4.142,0,7.5-3.358,7.5-7.5s-3.358-7.5-7.5-7.5
		H68.538c-4.142,0-7.5,3.358-7.5,7.5s3.358,7.5,7.5,7.5h3.188v56.038h-3.188c-4.142,0-7.5,3.358-7.5,7.5s3.358,7.5,7.5,7.5h3.188
		v297.924h-3.188c-4.142,0-7.5,3.358-7.5,7.5s3.358,7.5,7.5,7.5h3.188V455h-3.188c-4.142,0-7.5,3.358-7.5,7.5s3.358,7.5,7.5,7.5
		h332.924c4.142,0,7.5-3.358,7.5-7.5s-3.358-7.5-7.5-7.5h-2.5v-56.038h2.5c4.142,0,7.5-3.358,7.5-7.5s-3.358-7.5-7.5-7.5h-2.5
		V86.038H401.462z M86.727,15h297.235v56.038H86.727V15z M383.962,383.962H139.227c-4.142,0-7.5,3.358-7.5,7.5s3.358,7.5,7.5,7.5
		h244.735V455H86.727v-56.038h22.5c4.142,0,7.5-3.358,7.5-7.5s-3.358-7.5-7.5-7.5h-22.5V86.038h297.235V383.962z"/>
	<path d="M235,368.543c73.636,0,133.543-59.907,133.543-133.543S308.636,101.457,235,101.457S101.457,161.364,101.457,235
		S161.364,368.543,235,368.543z M235,116.457c65.365,0,118.543,53.178,118.543,118.543S300.365,353.543,235,353.543
		S116.457,300.365,116.457,235S169.635,116.457,235,116.457z"/>
	<path d="M189.038,235l-37.212,37.212c-2.929,2.929-2.929,7.678,0,10.606l35.355,35.355c2.929,2.929,7.678,2.929,10.606,0
		L235,280.962l37.212,37.212c1.464,1.464,3.384,2.197,5.303,2.197s3.839-0.732,5.303-2.197l35.355-35.355
		c2.929-2.929,2.929-7.678,0-10.606L280.962,235l37.212-37.212c1.407-1.406,2.197-3.314,2.197-5.303s-0.79-3.897-2.197-5.303
		l-35.355-35.355c-2.928-2.929-7.677-2.929-10.606,0L235,189.038l-37.212-37.212c-2.929-2.929-7.678-2.929-10.606,0l-35.355,35.355
		c-1.407,1.406-2.197,3.314-2.197,5.303s0.79,3.897,2.197,5.303L189.038,235z M192.484,167.736l37.212,37.212
		c2.929,2.929,7.678,2.929,10.606,0l37.212-37.212l24.749,24.749l-37.212,37.212c-1.407,1.406-2.197,3.314-2.197,5.303
		s0.79,3.897,2.197,5.303l37.212,37.212l-24.749,24.749l-37.212-37.212c-1.464-1.464-3.384-2.197-5.303-2.197
		s-3.839,0.732-5.303,2.197l-37.212,37.212l-24.749-24.749l37.212-37.212c1.407-1.406,2.197-3.314,2.197-5.303
		s-0.79-3.897-2.197-5.303l-37.212-37.212L192.484,167.736z"/>
</g>
<g>
</g>
<g>
</g>
<g>
</g>
<g>
</g>
<g>
</g>
<g>
</g>
<g>
</g>
<g>
</g>
<g>
</g>
<g>
</g>
<g>
</g>
<g>
</g>
<g>
</g>
<g>
</g>
<g>
</g>
</svg>
