<?xml version="1.0" encoding="iso-8859-1"?>
<!-- Generator: Adobe Illustrator 17.1.0, SVG Export Plug-In . SVG Version: 6.00 Build 0)  -->
<!DOCTYPE svg PUBLIC "-//W3C//DTD SVG 1.1//EN" "http://www.w3.org/Graphics/SVG/1.1/DTD/svg11.dtd">
<svg version="1.1" id="Capa_1" xmlns="http://www.w3.org/2000/svg" xmlns:xlink="http://www.w3.org/1999/xlink" x="0px" y="0px"
	 viewBox="0 0 470 470" style="enable-background:new 0 0 470 470;" xml:space="preserve">
<path d="M451.235,298.992C463.336,286.892,470,270.804,470,253.691s-6.664-33.201-18.765-45.301
	c-21.058-21.058-53.246-24.362-77.799-9.917v-30.598c0-4.142-3.358-7.5-7.5-7.5h-95.814V20.048c0-4.142-3.358-7.5-7.5-7.5
	s-7.5,3.358-7.5,7.5v140.327H197.44l38.022-15.559c3.833-1.569,5.67-5.948,4.101-9.782c-1.569-3.833-5.947-5.67-9.782-4.101
	l-73.314,30c-0.215,0.09-0.405,0.181-0.593,0.278c-0.037,0.019-0.076,0.035-0.113,0.054c-0.151,0.081-0.295,0.172-0.439,0.263
	c-0.683,0.428-1.283,0.952-1.781,1.552c-0.121,0.145-0.21,0.272-0.301,0.398c-0.053,0.073-0.11,0.142-0.16,0.216
	c-0.048,0.072-0.089,0.149-0.135,0.222c-0.084,0.134-0.169,0.268-0.244,0.407c-0.338,0.632-0.585,1.3-0.732,2.005
	c-0.021,0.096-0.029,0.175-0.042,0.252c-0.03,0.171-0.06,0.341-0.078,0.514c-0.004,0.04-0.004,0.081-0.007,0.121
	c-0.019,0.212-0.032,0.425-0.032,0.639c-0.001,0.019-0.001,85.007-0.001,85.007l-92.724-84.689l14.765-14.765
	c2.929-2.929,2.929-7.678,0-10.606c-2.929-2.929-7.678-2.929-10.606,0L32.72,173.325l-10.209,10.209
	c-0.003,0.003-20.314,20.314-20.314,20.314c-2.929,2.929-2.929,7.678,0,10.606c1.464,1.464,3.384,2.197,5.303,2.197
	s3.839-0.732,5.303-2.197l14.82-14.82l124.185,133.275v71.042h-2.125c-4.142,0-7.5,3.358-7.5,7.5s3.358,7.5,7.5,7.5h2.125v23.5
	h-2.125c-4.142,0-7.5,3.358-7.5,7.5s3.358,7.5,7.5,7.5h225.878c4.142,0,7.5-3.358,7.5-7.5s-3.358-7.5-7.5-7.5h-2.125v-23.5h2.125
	c4.142,0,7.5-3.358,7.5-7.5s-3.358-7.5-7.5-7.5h-2.125v-27.159L451.235,298.992z M405.934,204.625
	c13.106,0,25.427,5.104,34.695,14.371c19.131,19.131,19.131,50.259,0,69.39l-67.193,67.193V216.942
	C382.412,208.983,393.836,204.625,405.934,204.625z M335.936,418.951h22.5v23.5H166.808v-23.5h139.127c4.142,0,7.5-3.358,7.5-7.5
	s-3.358-7.5-7.5-7.5H166.808v-73.995c0-1.897-0.719-3.725-2.013-5.113L38.237,189.021l10.23-10.23l105.783,96.617
	c2.194,2.004,5.364,2.523,8.084,1.325c2.719-1.199,4.474-3.891,4.474-6.862v-94.496h191.628v38.315c0,0.005,0,159.983,0,159.983
	c0,0.026,0,30.278,0,30.278h-22.5c-4.142,0-7.5,3.358-7.5,7.5S331.794,418.951,335.936,418.951z"/>
<g>
</g>
<g>
</g>
<g>
</g>
<g>
</g>
<g>
</g>
<g>
</g>
<g>
</g>
<g>
</g>
<g>
</g>
<g>
</g>
<g>
</g>
<g>
</g>
<g>
</g>
<g>
</g>
<g>
</g>
</svg>
