<?xml version="1.0" standalone="no"?><!-- Generator: Gravit.io --><svg xmlns="http://www.w3.org/2000/svg" xmlns:xlink="http://www.w3.org/1999/xlink" style="isolation:isolate" viewBox="0 0 560 315" width="560" height="315"><path d=" M 157.1 18.1 L 157.1 18.1 Q 217.9 18.1 250.7 54.9 L 250.7 54.9 L 250.7 54.9 Q 283.5 91.7 283.5 160.5 L 283.5 160.5 L 283.5 160.5 Q 283.5 229.3 250.7 266.5 L 250.7 266.5 L 250.7 266.5 Q 217.9 303.7 157.1 303.7 L 157.1 303.7 L 157.1 303.7 Q 95.5 303.7 62.9 266.7 L 62.9 266.7 L 62.9 266.7 Q 30.3 229.7 30.3 160.5 L 30.3 160.5 L 30.3 160.5 Q 30.3 91.7 62.9 54.9 L 62.9 54.9 L 62.9 54.9 Q 95.5 18.1 157.1 18.1 L 157.1 18.1 Z  M 157.1 78.5 L 157.1 78.5 Q 134.7 78.5 125.1 97.1 L 125.1 97.1 L 125.1 97.1 Q 115.5 115.7 115.5 160.5 L 115.5 160.5 L 115.5 160.5 Q 115.5 205.3 125.1 224.1 L 125.1 224.1 L 125.1 224.1 Q 134.7 242.9 157.1 242.9 L 157.1 242.9 L 157.1 242.9 Q 179.1 242.9 188.5 224.1 L 188.5 224.1 L 188.5 224.1 Q 197.9 205.3 197.9 160.5 L 197.9 160.5 L 197.9 160.5 Q 197.9 115.7 188.5 97.1 L 188.5 97.1 L 188.5 97.1 Q 179.1 78.5 157.1 78.5 L 157.1 78.5 Z  M 287.9 86.9 L 287.9 20.5 L 422.3 20.5 L 422.3 300.9 L 339.1 300.9 L 339.1 86.9 L 287.9 86.9 Z " fill-rule="evenodd" fill="rgb(0,0,0)"/></svg>