<?xml version="1.0" standalone="no"?><!-- Generator: Gravit.io --><svg xmlns="http://www.w3.org/2000/svg" xmlns:xlink="http://www.w3.org/1999/xlink" style="isolation:isolate" viewBox="0 0 560 315" width="560" height="315"><path d=" M 157 18.1 L 157 18.1 Q 217.8 18.1 250.6 54.9 L 250.6 54.9 L 250.6 54.9 Q 283.4 91.7 283.4 160.5 L 283.4 160.5 L 283.4 160.5 Q 283.4 229.3 250.6 266.5 L 250.6 266.5 L 250.6 266.5 Q 217.8 303.7 157 303.7 L 157 303.7 L 157 303.7 Q 95.4 303.7 62.8 266.7 L 62.8 266.7 L 62.8 266.7 Q 30.2 229.7 30.2 160.5 L 30.2 160.5 L 30.2 160.5 Q 30.2 91.7 62.8 54.9 L 62.8 54.9 L 62.8 54.9 Q 95.4 18.1 157 18.1 L 157 18.1 Z  M 157 78.5 L 157 78.5 Q 134.6 78.5 125 97.1 L 125 97.1 L 125 97.1 Q 115.4 115.7 115.4 160.5 L 115.4 160.5 L 115.4 160.5 Q 115.4 205.3 125 224.1 L 125 224.1 L 125 224.1 Q 134.6 242.9 157 242.9 L 157 242.9 L 157 242.9 Q 179 242.9 188.4 224.1 L 188.4 224.1 L 188.4 224.1 Q 197.8 205.3 197.8 160.5 L 197.8 160.5 L 197.8 160.5 Q 197.8 115.7 188.4 97.1 L 188.4 97.1 L 188.4 97.1 Q 179 78.5 157 78.5 L 157 78.5 Z  M 417.4 236.1 L 528.6 236.1 L 528.6 300.9 L 311.8 300.9 L 311.4 247.7 L 411.4 144.5 L 411.4 144.5 Q 422.2 133.7 428.8 122.7 L 428.8 122.7 L 428.8 122.7 Q 435.4 111.7 435.4 103.7 L 435.4 103.7 L 435.4 103.7 Q 435.4 94.1 428.8 89.1 L 428.8 89.1 L 428.8 89.1 Q 422.2 84.1 410.2 84.1 L 410.2 84.1 L 410.2 84.1 Q 393.8 84.1 373.6 93.5 L 373.6 93.5 L 373.6 93.5 Q 353.4 102.9 333 119.7 L 333 119.7 L 301.8 59.7 L 301.8 59.7 Q 364.2 16.9 422.6 16.9 L 422.6 16.9 L 422.6 16.9 Q 451.4 16.9 474 26.3 L 474 26.3 L 474 26.3 Q 496.6 35.7 509.6 52.5 L 509.6 52.5 L 509.6 52.5 Q 522.6 69.3 522.6 91.3 L 522.6 91.3 L 522.6 91.3 Q 522.6 113.3 508.4 136.3 L 508.4 136.3 L 508.4 136.3 Q 494.2 159.3 467.8 185.7 L 467.8 185.7 L 417.4 236.1 Z " fill-rule="evenodd" fill="rgb(0,0,0)"/></svg>