<?xml version="1.0" standalone="no"?><!-- Generator: Gravit.io --><svg xmlns="http://www.w3.org/2000/svg" xmlns:xlink="http://www.w3.org/1999/xlink" style="isolation:isolate" viewBox="0 0 560 315" width="560" height="315"><path d=" M 157.8 18.1 L 157.8 18.1 Q 218.6 18.1 251.4 54.9 L 251.4 54.9 L 251.4 54.9 Q 284.2 91.7 284.2 160.5 L 284.2 160.5 L 284.2 160.5 Q 284.2 229.3 251.4 266.5 L 251.4 266.5 L 251.4 266.5 Q 218.6 303.7 157.8 303.7 L 157.8 303.7 L 157.8 303.7 Q 96.2 303.7 63.6 266.7 L 63.6 266.7 L 63.6 266.7 Q 31 229.7 31 160.5 L 31 160.5 L 31 160.5 Q 31 91.7 63.6 54.9 L 63.6 54.9 L 63.6 54.9 Q 96.2 18.1 157.8 18.1 L 157.8 18.1 Z  M 157.8 78.5 L 157.8 78.5 Q 135.4 78.5 125.8 97.1 L 125.8 97.1 L 125.8 97.1 Q 116.2 115.7 116.2 160.5 L 116.2 160.5 L 116.2 160.5 Q 116.2 205.3 125.8 224.1 L 125.8 224.1 L 125.8 224.1 Q 135.4 242.9 157.8 242.9 L 157.8 242.9 L 157.8 242.9 Q 179.8 242.9 189.2 224.1 L 189.2 224.1 L 189.2 224.1 Q 198.6 205.3 198.6 160.5 L 198.6 160.5 L 198.6 160.5 Q 198.6 115.7 189.2 97.1 L 189.2 97.1 L 189.2 97.1 Q 179.8 78.5 157.8 78.5 L 157.8 78.5 Z  M 459.4 134.5 L 459.4 134.5 Q 491.4 140.5 510.8 160.7 L 510.8 160.7 L 510.8 160.7 Q 530.2 180.9 530.2 212.1 L 530.2 212.1 L 530.2 212.1 Q 530.2 239.3 516 260.3 L 516 260.3 L 516 260.3 Q 501.8 281.3 475.6 292.9 L 475.6 292.9 L 475.6 292.9 Q 449.4 304.5 414.6 304.5 L 414.6 304.5 L 414.6 304.5 Q 383.4 304.5 352.6 294.7 L 352.6 294.7 L 352.6 294.7 Q 321.8 284.9 301 268.9 L 301 268.9 L 331 212.1 L 331 212.1 Q 349 226.9 368.6 234.7 L 368.6 234.7 L 368.6 234.7 Q 388.2 242.5 408.2 242.5 L 408.2 242.5 L 408.2 242.5 Q 427.8 242.5 438.2 234.9 L 438.2 234.9 L 438.2 234.9 Q 448.6 227.3 448.6 212.5 L 448.6 212.5 L 448.6 212.5 Q 448.6 198.1 438.2 190.3 L 438.2 190.3 L 438.2 190.3 Q 427.8 182.5 407.8 182.5 L 407.8 182.5 L 357.8 182.5 L 357.8 138.9 L 417.8 81.3 L 315.8 81.3 L 315.8 20.1 L 516.6 20.1 L 516.6 67.7 L 445.4 131.7 L 459.4 134.5 Z " fill-rule="evenodd" fill="rgb(0,0,0)"/></svg>