<svg xmlns="http://www.w3.org/2000/svg" version="1.0" width="30.000000pt" height="30.000000pt" viewBox="0 0 30.000000 30.000000" preserveAspectRatio="xMidYMid meet">
<metadata>
Created by potrace 1.15, written by Peter Selinger 2001-2017
</metadata>
<g transform="translate(0.000000,30.000000) scale(0.0020,-0.0020)" fill="#ffffff" stroke="none">
<path d="M5635 11894 c-22 -2 -98 -9 -170 -14 -936 -77 -1897 -413 -2705 -944 -967 -637 -1751 -1574 -2195 -2626 -255 -605 -405 -1226 -455 -1889 -13 -174 -13 -678 0 -852 77 -1023 400 -1975 955 -2819 501 -763 1185 -1410 1975 -1870 161 -94 478 -252 650 -325 481 -203 962 -337 1471 -409 310 -44 423 -51 844 -51 421 0 534 7 844 51 1672 238 3162 1185 4097 2604 543 825 869 1774 949 2763 20 246 20 718 0 964 -147 1818 -1124 3462 -2656 4466 -786 516 -1667 828 -2634 933 -141 15 -859 29 -970 18z m-1942 -3840 c351 -46 726 -208 1012 -439 135 -110 788 -762 815 -815 18 -36 21 -56 18 -119 -3 -69 -7 -82 -38 -126 -64 -89 -175 -125 -281 -90 -50 16 -82 45 -424 385 -203 202 -397 387 -430 412 -205 153 -405 242 -675 299 -88 19 -136 23 -295 23 -168 0 -204 -4 -310 -27 -229 -50 -405 -123 -581 -242 -311 -211 -554 -544 -647 -885 -57 -209 -62 -245 -61 -440 0 -207 17 -312 79 -503 151 -467 528 -853 990 -1015 504 -177 1091 -82 1506 243 41 32 700 682 1464 1444 765 763 1404 1399 1421 1413 363 302 752 461 1223 499 210 17 449 -7 679 -67 458 -120 854 -391 1148 -784 70 -94 115 -167 178 -295 112 -227 154 -353 197 -595 32 -178 33 -497 1 -685 -149 -873 -816 -1555 -1684 -1717 -108 -20 -153 -23 -378 -23 -225 0 -268 3 -370 23 -303 60 -563 166 -797 324 -135 90 -257 200 -591 532 -368 366 -382 384 -382 491 0 51 5 70 33 115 17 30 51 68 75 85 38 26 54 30 121 33 61 3 86 0 114 -15 19 -10 197 -176 394 -369 197 -194 384 -373 416 -398 169 -136 390 -245 600 -296 156 -37 213 -43 392 -43 157 0 196 4 309 27 447 95 811 350 1055 740 87 139 144 281 198 491 27 106 28 120 28 345 -1 223 -2 240 -28 340 -40 151 -65 223 -112 325 -218 468 -632 795 -1145 903 -109 22 -149 26 -310 26 -165 0 -199 -3 -314 -28 -288 -62 -530 -180 -730 -356 -41 -36 -681 -672 -1423 -1414 -741 -742 -1388 -1381 -1438 -1421 -275 -222 -598 -372 -935 -436 -111 -21 -154 -24 -385 -24 -303 0 -403 15 -636 90 -318 103 -573 256 -817 490 -316 302 -541 732 -607 1161 -26 169 -31 442 -10 604 45 357 179 692 390 976 229 308 515 534 860 681 135 57 146 61 305 102 271 70 515 83 813 45z"/>
</g>
</svg>